<?xml version="1.0" standalone="no"?>
<!DOCTYPE svg PUBLIC "-//W3C//DTD SVG 20010904//EN"
 "http://www.w3.org/TR/2001/REC-SVG-20010904/DTD/svg10.dtd">
<svg version="1.0" xmlns="http://www.w3.org/2000/svg"
 width="600.000000pt" height="600.000000pt" viewBox="0 0 600.000000 600.000000"
 preserveAspectRatio="xMidYMid meet">
<metadata>
Created by potrace 1.11, written by Peter Selinger 2001-2013
</metadata>
<g transform="translate(0.000000,600.000000) scale(0.100000,-0.100000)"
fill="#000000" stroke="none">
<path d="M3440 5843 c-36 -7 -77 -15 -92 -18 -66 -13 -213 -72 -327 -131 -212
-110 -355 -211 -540 -382 -52 -48 -95 -85 -95 -83 -1 2 -12 -1 -25 -8 -14 -8
-21 -9 -17 -2 4 6 0 11 -11 12 -10 0 -27 2 -38 5 -57 12 -90 12 -102 2 -10 -8
-12 -8 -8 3 3 9 -1 15 -12 15 -10 1 -52 4 -93 9 -41 4 -105 8 -142 9 -38 1
-68 4 -68 8 0 4 -7 5 -15 2 -18 -7 -20 -25 -3 -22 7 2 12 -1 13 -7 0 -5 6 -20
13 -32 12 -22 2 -40 -17 -28 -13 7 -54 -52 -45 -66 3 -6 -6 -3 -20 6 -29 19
-30 39 -2 41 12 2 13 1 1 -3 -19 -6 -20 -23 -1 -23 8 0 23 13 33 30 12 22 22
28 36 24 16 -5 17 -3 8 13 -5 11 -17 25 -25 33 -9 7 -16 20 -16 28 0 13 -3 12
-15 -4 -10 -12 -14 -14 -13 -4 2 11 -10 14 -62 11 -36 -1 -89 -3 -117 -4 -29
-1 -53 -5 -53 -9 0 -17 13 -37 21 -32 5 3 6 10 3 16 -4 6 -2 8 4 4 5 -3 13 0
15 6 4 8 6 9 6 2 1 -6 -6 -17 -14 -24 -8 -7 -15 -18 -15 -24 1 -6 15 5 32 24
17 20 25 25 19 13 -14 -28 -14 -28 10 -30 15 -1 18 1 10 10 -7 9 -4 17 12 26
12 8 19 10 15 6 -4 -4 -3 -17 3 -27 8 -15 8 -23 -1 -32 -8 -8 -9 -6 -4 9 7 18
6 19 -10 6 -17 -14 -17 -15 0 -28 29 -21 31 -20 35 30 1 6 -1 19 -3 27 -3 8
-3 11 0 7 2 -4 11 0 19 10 13 17 13 16 4 -4 -16 -32 -13 -41 7 -17 20 24 56
29 47 6 -4 -11 1 -13 22 -8 23 5 25 4 11 -4 -10 -6 -26 -10 -35 -8 -10 2 -22
-6 -27 -18 -5 -11 -23 -28 -39 -38 -16 -9 -27 -19 -24 -22 10 -10 65 25 72 46
7 23 22 27 22 5 0 -8 -4 -12 -8 -10 -7 5 -23 -24 -21 -37 1 -4 -5 -5 -13 -2
-11 5 -14 1 -9 -12 5 -15 4 -16 -5 -4 -12 17 -24 9 -16 -11 7 -19 56 -23 67
-7 5 9 8 9 8 2 0 -7 17 -12 40 -12 22 0 44 -4 50 -7 5 -3 10 2 10 11 0 17 1
17 13 0 8 -12 21 -16 39 -12 15 2 42 1 60 -4 18 -5 56 -11 83 -14 28 -3 61 -8
74 -12 17 -5 22 -4 17 4 -10 17 3 15 21 -3 8 -8 19 -13 24 -10 5 4 9 4 9 2 0
-4 -6 -12 -97 -113 -148 -166 -340 -405 -491 -612 -19 -26 -29 -32 -46 -28
-80 20 -415 27 -561 12 -115 -12 -129 -14 -135 -16 -3 -1 -9 -3 -15 -4 -5 0
-62 -18 -125 -39 -321 -105 -522 -300 -579 -561 -40 -181 7 -405 140 -671 110
-219 236 -394 426 -594 66 -69 69 -76 54 -128 -6 -20 -6 -35 0 -38 5 -4 9 -11
9 -16 0 -6 -4 -7 -10 -4 -10 6 -12 -5 -14 -102 0 -28 -4 -49 -8 -46 -5 2 -8
-11 -9 -29 -3 -98 -9 -171 -13 -176 -3 -3 2 -11 12 -19 15 -12 15 -12 0 -7
-17 6 -19 -10 -5 -33 4 -6 4 -14 -1 -17 -5 -3 -8 -21 -7 -40 0 -25 8 -40 28
-56 15 -12 27 -17 27 -11 0 6 -9 16 -20 23 -11 7 -20 19 -20 27 0 8 9 2 21
-13 12 -15 27 -25 35 -22 7 3 11 0 8 -7 -2 -8 4 -13 17 -14 17 -2 18 1 9 13
-9 10 -9 14 -1 14 10 0 14 -11 9 -27 -2 -5 -16 -8 -33 -8 -22 0 -30 -5 -32
-20 -2 -11 0 -14 3 -7 3 6 10 12 16 12 6 0 6 -6 -2 -15 -12 -15 -6 -35 11 -35
6 0 8 4 5 9 -8 12 3 41 15 41 6 0 6 -8 0 -19 -6 -10 -7 -21 -4 -25 11 -11 19
-6 20 14 2 21 47 93 54 85 3 -2 5 4 5 15 0 10 -4 16 -8 14 -4 -3 -8 0 -8 5 0
6 4 11 8 11 4 0 8 11 8 25 0 29 -18 29 -22 0 -2 -11 -7 -21 -13 -23 -7 -2 -6
-10 2 -22 9 -15 9 -22 -1 -32 -11 -11 -12 -10 -7 4 8 19 -26 62 -70 89 -16 11
-25 19 -19 19 11 0 64 -37 75 -53 3 -4 11 -2 18 6 9 12 7 16 -14 21 -28 7 -29
32 -1 30 9 -1 16 2 16 7 0 5 5 9 11 9 8 0 8 -4 -1 -14 -6 -8 -19 -12 -27 -9
-11 4 -14 2 -9 -5 10 -16 27 -15 50 3 17 13 17 17 5 32 -8 9 -9 14 -3 10 7 -4
14 3 16 18 7 32 -5 32 -26 0 -9 -14 -21 -23 -26 -20 -6 4 -10 1 -10 -6 0 -7
-3 -9 -6 -6 -4 4 -1 13 6 22 8 10 9 15 1 15 -16 0 -14 16 4 34 8 8 15 19 15
24 0 5 6 15 13 21 10 8 14 7 14 -4 0 -8 -4 -12 -9 -9 -4 3 -8 -2 -8 -10 0 -8
-7 -21 -15 -29 -13 -13 -13 -16 0 -27 12 -10 15 -9 15 4 0 9 5 16 11 16 5 0 7
5 4 10 -4 6 -1 9 6 8 7 -2 13 8 14 23 1 14 5 34 8 43 4 9 3 15 -2 12 -5 -3
-11 1 -15 9 -3 8 0 14 7 12 7 -1 12 9 11 26 0 15 3 27 6 27 3 0 6 8 7 18 1 9
3 31 6 47 3 17 5 36 6 43 0 7 43 -24 94 -70 73 -66 237 -205 337 -285 77 -62
195 -151 247 -185 l63 -43 -6 -65 c-3 -36 -7 -81 -10 -100 -6 -44 -6 -322 0
-375 3 -22 7 -64 11 -94 3 -29 8 -58 11 -63 3 -5 -2 -16 -12 -24 -13 -10 -14
-12 -3 -9 12 5 21 -14 43 -87 103 -347 309 -565 586 -622 213 -43 509 42 834
241 149 92 262 180 407 319 60 58 68 63 105 60 21 -2 48 -7 58 -11 13 -6 23
-3 33 11 14 19 14 19 11 0 -2 -15 4 -20 27 -22 17 -1 55 -5 85 -9 30 -3 80 -8
110 -10 30 -2 57 -4 60 -5 15 -6 47 -4 64 3 13 6 16 6 12 -2 -5 -7 2 -11 16
-11 13 0 18 4 13 8 -6 4 -12 18 -13 32 -1 18 1 21 8 10 5 -8 7 -17 5 -20 -14
-24 89 -37 113 -13 7 7 18 13 25 13 6 0 3 -6 -7 -13 -15 -11 -13 -13 19 -13
26 0 34 4 30 14 -3 8 0 21 6 28 8 9 8 14 1 14 -6 0 -14 -5 -18 -11 -3 -6 -14
-9 -24 -6 -11 3 -28 -2 -39 -10 -12 -8 -21 -10 -21 -4 0 6 4 11 10 11 5 0 9 3
9 7 -3 21 2 33 12 27 8 -4 7 -9 -2 -16 -12 -8 -11 -9 0 -6 22 6 25 27 5 35
-10 4 -22 0 -29 -10 -7 -9 -16 -13 -20 -9 -5 4 -5 -1 -2 -10 3 -10 -1 -24 -10
-34 -15 -15 -18 -14 -34 7 -16 21 -16 25 -3 32 9 5 18 6 21 3 4 -3 1 -6 -5 -6
-7 0 -12 -5 -12 -11 0 -5 4 -7 10 -4 6 4 7 -1 3 -12 -6 -16 -5 -16 10 -5 8 8
14 19 11 26 -3 7 7 21 22 31 22 14 31 15 46 6 22 -14 38 -14 38 -1 0 5 -6 9
-12 7 -8 -1 -12 7 -11 21 2 12 -2 22 -7 22 -6 0 -10 -7 -10 -15 0 -8 -4 -15
-10 -15 -5 0 -7 8 -4 18 4 11 -1 8 -15 -8 -11 -14 -21 -20 -21 -15 0 6 -5 2
-11 -7 -5 -10 -15 -18 -20 -18 -6 0 -3 8 7 17 10 10 20 17 22 15 5 -4 42 49
42 62 0 5 -6 4 -12 -2 -7 -5 -22 -6 -33 -2 -13 5 -25 1 -37 -14 l-18 -21 -6
21 c-4 16 -14 22 -37 22 -29 0 -87 5 -191 17 -34 4 -75 10 -124 19 -20 4 -13
18 41 81 29 32 82 93 118 135 99 114 282 344 356 448 l66 93 57 -6 c31 -3 79
-8 106 -10 65 -6 342 -6 374 -1 99 17 109 16 126 -9 9 -14 20 -25 26 -25 5 0
0 10 -12 22 -11 12 -18 23 -17 25 2 1 21 5 43 9 64 10 238 70 315 109 174 87
308 219 373 368 149 340 -44 868 -500 1363 -60 65 -79 93 -80 115 0 16 3 29 7
29 4 0 8 8 8 18 -1 34 10 122 15 130 3 5 8 49 10 98 3 49 6 89 7 89 1 0 3 41
5 92 1 51 5 96 8 101 3 5 3 12 -1 15 -6 7 -36 -28 -46 -53 -4 -11 -6 -11 -6
-1 -1 7 13 30 29 51 22 27 27 40 18 44 -10 4 -10 7 -1 12 7 3 9 14 3 34 -4 16
-6 31 -2 34 8 9 -11 7 -23 -2 -13 -10 -18 -42 -6 -42 5 0 11 3 14 8 2 4 2 0
-1 -8 -3 -8 -4 -24 -4 -35 1 -23 -24 -65 -38 -65 -6 0 -1 9 10 20 11 11 20 26
20 33 0 7 -9 18 -20 25 -11 7 -20 8 -20 3 0 -6 7 -14 15 -18 12 -7 10 -13 -10
-37 -14 -16 -25 -25 -25 -20 0 5 -5 2 -10 -6 -6 -10 -10 -11 -10 -2 0 6 -5 12
-11 12 -5 0 -7 -4 -4 -10 3 -5 1 -10 -5 -10 -21 0 -4 25 18 26 22 1 52 21 52
33 0 4 -9 17 -20 29 -21 22 -21 22 -1 19 11 -2 24 -6 27 -10 13 -13 27 -7 15
6 -6 8 -9 24 -6 36 3 14 0 21 -8 18 -7 -2 -11 -11 -10 -19 2 -11 -9 -14 -47
-14 -33 0 -46 4 -40 10 13 13 13 29 0 21 -5 -3 -10 -2 -10 2 0 5 9 14 21 21
12 7 18 16 15 19 -3 3 -13 0 -22 -8 -16 -13 -16 -12 -3 9 11 18 12 26 1 43 -8
12 -9 18 -4 15 5 -3 15 1 22 9 11 13 9 15 -11 13 -18 -2 -23 1 -21 15 2 9 -3
17 -10 17 -10 0 -10 2 0 9 18 11 17 20 -5 37 -13 10 -14 13 -2 9 10 -4 16 0
16 10 0 9 -6 14 -14 11 -9 -4 -11 -1 -7 6 4 6 3 8 -3 5 -6 -4 -10 5 -9 21 1
15 -3 33 -8 40 -6 9 -5 12 4 10 7 -2 15 3 17 10 3 7 1 12 -4 11 -19 -3 -34 2
-28 10 3 5 1 12 -4 16 -6 3 -7 13 -4 22 5 13 2 15 -13 9 -16 -6 -17 -5 -6 6
11 11 16 10 28 -6 8 -11 14 -14 14 -7 0 7 5 9 11 5 8 -5 8 -9 -1 -14 -9 -5 -9
-9 -1 -14 6 -4 11 -1 11 6 0 11 2 10 9 0 7 -11 9 -10 14 3 5 10 3 14 -5 9 -7
-4 -8 -3 -4 5 4 6 11 9 16 6 5 -3 12 0 16 6 5 8 3 9 -5 4 -8 -4 -7 2 3 17 9
14 13 29 9 34 -5 5 -4 5 1 1 13 -11 16 -37 5 -37 -6 0 -7 -5 -4 -11 4 -6 13
-8 19 -6 7 3 13 -1 13 -8 0 -7 -7 -11 -16 -8 -14 4 -14 3 -1 -5 8 -6 17 -9 21
-6 9 5 21 -25 14 -36 -3 -5 -1 -12 5 -15 8 -5 7 -12 -2 -23 -11 -13 -11 -15 4
-10 11 5 15 2 13 -10 -1 -9 3 -23 9 -31 8 -11 8 -13 -1 -8 -8 5 -11 0 -10 -13
1 -11 4 -20 8 -20 11 0 17 -37 8 -51 -5 -8 -9 -10 -9 -5 0 5 -8 2 -17 -5 -14
-12 -16 -12 -9 0 6 9 5 12 -4 9 -8 -2 -15 -17 -17 -34 -4 -27 -3 -28 10 -9 9
11 27 19 43 20 26 0 29 3 25 30 -1 17 -6 34 -9 39 -3 5 -6 21 -8 35 -5 51 -39
159 -55 176 -5 5 -9 17 -9 27 0 10 -5 18 -11 18 -5 0 -8 4 -4 9 3 5 -2 16 -10
24 -8 9 -15 20 -15 26 0 6 -5 11 -11 11 -5 0 -8 4 -5 8 8 13 -52 91 -67 88 -6
-1 -18 -5 -25 -9 -8 -6 -11 -2 -9 12 4 23 17 41 17 23 0 -7 5 -12 12 -12 6 0
-1 13 -17 30 -23 24 -31 27 -44 17 -12 -10 -14 -9 -8 5 3 10 0 23 -7 30 -22
21 -53 41 -61 39 -3 -1 -15 8 -26 20 -10 12 -22 19 -26 16 -3 -4 -14 0 -24 9
-9 8 -26 16 -38 17 -11 1 -21 6 -21 12 0 5 -5 2 -11 -8 -5 -9 -7 -22 -4 -27 3
-6 2 -10 -4 -10 -18 0 -23 21 -9 38 12 16 11 16 -6 2 -18 -13 -19 -13 -14 1 5
12 -1 15 -26 14 -20 0 -30 -5 -28 -14 2 -9 -3 -11 -15 -7 -16 6 -16 6 0 -12 9
-10 14 -22 10 -25 -9 -9 -25 -9 -20 1 2 4 -9 19 -24 34 -33 31 -39 25 -8 -8
l21 -22 -23 -31 c-23 -31 -41 -41 -36 -20 1 6 -4 13 -11 15 -7 1 -8 0 -2 -3 7
-3 5 -9 -5 -17 -13 -9 -6 -11 35 -12 27 0 48 2 45 4 -5 5 42 32 54 32 3 -1 -4
-9 -15 -19 -21 -17 -21 -18 -3 -29 12 -8 19 -8 19 -2 0 5 5 10 11 10 5 0 7 -5
3 -12 -4 -6 -3 -8 4 -4 6 3 13 2 16 -3 3 -5 20 -14 36 -20 29 -9 30 -9 19 10
-6 12 -8 23 -5 27 3 3 6 0 6 -7 0 -7 5 -9 12 -5 6 4 8 3 4 -4 -3 -6 -2 -13 3
-17 6 -3 9 -11 7 -18 -1 -7 -1 -8 2 -4 2 4 10 3 18 -4 8 -6 11 -16 7 -23 -3
-6 -3 -8 2 -4 4 4 21 -8 38 -27 16 -19 36 -35 44 -35 8 0 12 -4 8 -9 -3 -6 1
-13 9 -18 8 -4 15 -11 16 -15 2 -16 35 -68 43 -68 5 0 5 5 2 10 -3 6 -2 10 3
10 6 0 12 -7 16 -15 3 -9 0 -15 -10 -15 -12 0 -13 -4 -2 -22 7 -13 13 -25 13
-28 2 -10 30 -65 35 -70 3 -3 6 -14 7 -25 1 -22 11 -70 13 -70 5 0 23 -107 24
-142 0 -17 4 -29 8 -27 5 3 5 10 2 16 -4 7 -2 8 4 4 8 -5 9 -13 3 -24 -5 -9
-9 -71 -8 -138 0 -67 -3 -126 -7 -132 -3 -6 -2 -13 4 -17 5 -3 10 -11 10 -16
0 -6 -4 -8 -9 -5 -4 3 -8 -5 -7 -17 1 -12 -1 -37 -5 -55 -4 -17 -3 -35 2 -38
5 -3 9 -11 9 -17 0 -7 -4 -6 -10 3 -8 12 -10 9 -10 -13 0 -16 4 -26 10 -22 6
3 10 2 10 -3 0 -6 -6 -12 -13 -15 -7 -2 -14 -15 -15 -28 -1 -13 -4 -33 -6 -44
-2 -11 1 -26 7 -33 8 -10 7 -12 -4 -10 -8 2 -13 -3 -11 -9 4 -22 -12 -14 -58
30 -38 37 -127 114 -230 201 -128 108 -256 207 -423 330 -20 15 -35 31 -32 35
25 41 26 643 1 668 -3 4 0 13 7 21 9 13 9 14 0 8 -12 -7 -19 19 -14 48 1 5 -2
12 -6 15 -5 3 -19 40 -32 81 -91 289 -277 499 -506 570 -84 26 -230 32 -325
13z m233 -392 c119 -57 223 -242 261 -462 16 -96 30 -342 20 -360 -2 -4 -66
24 -141 61 -76 37 -160 78 -188 90 -27 12 -102 47 -165 77 -63 30 -137 64
-165 75 -27 11 -70 29 -95 40 -145 65 -406 152 -428 143 -9 -3 -13 -3 -9 1 4
4 -5 13 -19 19 -27 11 -25 12 87 87 119 80 278 161 389 198 182 62 364 74 453
31z m-1730 -193 c-2 -5 -11 -8 -19 -8 -8 0 -17 -7 -21 -16 -4 -12 -8 -13 -14
-3 -4 7 -4 18 1 24 9 11 61 14 53 3z m63 -13 c-1 -5 -7 -20 -14 -32 -16 -28
-15 -28 7 -30 13 -1 17 3 14 17 -3 10 0 21 5 24 11 7 46 -23 37 -32 -3 -3 -12
3 -21 14 -15 18 -15 18 -11 -4 4 -15 0 -25 -9 -29 -8 -3 -11 -10 -8 -17 4 -6
-4 -1 -16 11 -22 21 -22 23 -7 47 16 23 16 26 -1 35 -15 9 -15 10 4 8 12 0 21
-6 20 -12z m44 5 c-8 -5 -19 -10 -25 -10 -5 0 -3 5 5 10 8 5 20 10 25 10 6 0
3 -5 -5 -10z m-78 -18 c-7 -2 -10 -8 -7 -13 4 -5 -2 -6 -11 -2 -11 4 -13 8 -6
11 7 2 10 8 7 13 -4 5 2 6 11 2 11 -4 13 -8 6 -11z m138 8 c0 -4 -14 -7 -30
-7 -18 0 -26 3 -19 8 15 9 49 8 49 -1z m30 0 c0 -5 -5 -10 -11 -10 -5 0 -7 5
-4 10 3 6 8 10 11 10 2 0 4 -4 4 -10z m-213 -20 c1 -13 -4 -20 -15 -20 -15 0
-15 2 -2 10 8 5 11 10 7 10 -5 0 -5 5 -2 10 9 14 11 13 12 -10z m-80 4 c-3 -3
-12 -4 -19 -1 -8 3 -5 6 6 6 11 1 17 -2 13 -5z m323 -1 c0 -3 -8 -15 -17 -26
-17 -19 -17 -20 0 -14 9 4 17 2 17 -3 0 -12 -27 -13 -34 -1 -3 5 1 14 9 21 8
7 12 16 9 21 -3 5 0 9 5 9 6 0 11 -3 11 -7z m124 -22 c-2 -3 -12 3 -22 13 -16
17 -16 18 5 5 12 -7 20 -15 17 -18z m-472 5 c7 4 8 2 4 -4 -11 -18 -26 -14
-25 6 0 10 3 12 6 4 2 -6 10 -9 15 -6z m293 -19 c4 4 5 2 0 -6 -7 -12 -10 -11
-22 4 -7 11 -13 24 -13 29 1 6 6 1 13 -12 7 -12 17 -19 22 -15z m89 18 c-4 -8
-11 -12 -16 -9 -6 4 -5 10 3 15 19 12 19 11 13 -6z m124 -16 c-3 -8 -7 -3 -11
10 -4 17 -3 21 5 13 5 -5 8 -16 6 -23z m2395 -12 c19 -31 44 -31 39 -1 -2 16
-1 17 7 4 8 -10 11 -11 11 -2 0 10 7 9 30 -3 16 -8 32 -14 34 -13 7 5 46 -35
46 -46 0 -6 -4 -5 -9 2 -4 7 -16 14 -25 16 -10 1 -22 9 -27 17 -5 8 -9 10 -9
5 0 -5 -6 -4 -13 2 -8 7 -17 7 -30 -2 -16 -12 -15 -15 9 -40 l27 -26 -27 2
c-16 2 -25 7 -22 14 6 16 -20 38 -34 29 -7 -4 -10 0 -8 11 2 10 -3 19 -9 20
-7 1 -19 2 -27 3 -8 0 -14 10 -13 21 2 28 28 21 50 -13z m-2477 5 c1 -7 0 -8
-3 -2 -2 5 -9 10 -14 10 -6 0 -7 -5 -3 -12 4 -7 3 -8 -5 -4 -14 9 -4 29 12 23
6 -2 12 -9 13 -15z m-329 -12 c7 -10 10 -26 7 -34 -5 -13 -1 -13 25 -3 16 6
27 15 24 20 -3 4 -12 6 -20 3 -8 -3 -12 -2 -8 3 3 5 -1 11 -7 14 -7 2 -11 7
-8 10 3 3 19 -4 35 -17 l30 -24 -35 -15 c-42 -17 -53 -13 -44 16 7 21 6 21
-21 3 -15 -10 -25 -14 -21 -8 3 5 -1 12 -9 16 -8 3 -15 11 -14 18 0 10 2 10 6
1 2 -7 9 -13 14 -13 6 0 7 6 3 13 -6 10 -4 10 7 0 18 -18 34 -16 19 2 -7 8 -8
15 -4 15 5 0 15 -9 21 -20z m168 -10 c2 -12 1 -20 -2 -16 -4 4 -8 16 -10 28
-4 28 6 18 12 -12z m105 5 c0 -8 -4 -15 -10 -15 -5 0 -7 7 -4 15 4 8 8 15 10
15 2 0 4 -7 4 -15z m82 -27 c-6 -6 -12 -6 -17 3 -6 8 -4 10 5 4 9 -5 10 -1 6
16 -6 21 -6 22 5 6 7 -13 8 -22 1 -29z m-215 26 c-3 -3 -12 -4 -19 -1 -8 3 -5
6 6 6 11 1 17 -2 13 -5z m93 -9 c0 -1 -12 -2 -26 -2 -17 0 -22 2 -13 7 10 7
39 3 39 -5z m2566 -17 c0 -22 -14 -24 -22 -3 -5 11 -13 9 -46 -11 -22 -14 -42
-24 -44 -21 -8 7 31 44 43 40 6 -2 14 1 18 6 10 18 51 9 51 -11z m134 -12 c0
4 9 -1 20 -11 18 -16 20 -16 26 -2 5 14 11 13 40 -9 19 -15 31 -30 28 -35 -3
-5 -10 -6 -16 -3 -7 4 -8 2 -4 -4 4 -7 3 -12 -3 -12 -19 0 -21 19 -4 30 17 11
17 11 0 6 -12 -4 -16 -2 -11 6 5 7 3 8 -6 3 -9 -6 -11 -4 -5 5 6 9 4 11 -5 5
-24 -15 -62 -15 -56 0 3 9 0 12 -8 9 -8 -3 -17 -1 -20 5 -4 6 -13 8 -20 5 -16
-6 -30 11 -21 26 4 6 18 2 36 -10 16 -12 29 -18 29 -14z m-2997 10 c4 -10 1
-13 -9 -9 -15 6 -19 23 -5 23 5 0 11 -7 14 -14z m214 -3 c2 -6 -1 -14 -6 -18
-6 -3 -9 0 -6 7 4 9 -3 14 -16 15 -17 2 -19 -1 -10 -10 6 -6 11 -15 11 -21 0
-5 -6 -1 -14 9 -8 11 -12 23 -10 27 7 11 47 3 51 -9z m180 -16 c-2 -6 -10 -12
-18 -15 -11 -3 -11 -2 1 7 13 9 12 12 -5 26 -19 16 -19 16 3 5 13 -6 22 -16
19 -23z m-477 13 c0 -5 -4 -10 -10 -10 -5 0 -10 5 -10 10 0 6 5 10 10 10 6 0
10 -4 10 -10z m364 -6 c3 -8 2 -12 -4 -9 -6 3 -10 10 -10 16 0 14 7 11 14 -7z
m32 -9 c1 -7 -4 -16 -12 -19 -11 -4 -12 -1 -5 13 6 10 8 21 6 25 -3 3 -2 4 2
1 4 -3 8 -12 9 -20z m39 5 c0 -7 -7 -15 -15 -17 -13 -4 -13 -3 0 6 13 10 13
12 0 22 -13 9 -13 10 0 6 8 -2 15 -10 15 -17z m-107 -15 c-3 -3 -9 2 -12 12
-6 14 -5 15 5 6 7 -7 10 -15 7 -18z m2655 19 c3 -4 2 -16 -4 -27 -7 -12 -7
-17 -1 -13 5 3 12 -1 16 -9 8 -21 -7 -19 -37 5 -16 13 -32 18 -44 13 -16 -6
-16 -5 -5 10 8 8 19 14 27 11 7 -3 16 -1 20 5 7 12 19 14 28 5z m119 -60 c18
-3 18 -4 6 -18 -11 -12 -15 -9 -29 16 -13 25 -17 27 -22 14 -4 -10 -1 -19 8
-22 8 -4 12 -10 9 -15 -3 -5 0 -10 5 -10 6 -1 16 -3 21 -4 6 -1 13 -3 18 -4 4
-1 1 -5 -7 -10 -9 -6 -10 -11 -2 -15 6 -4 11 -1 11 6 0 8 5 6 11 -5 5 -9 7
-23 3 -30 -5 -7 0 -6 11 3 15 12 17 12 10 1 -5 -9 -4 -12 3 -8 14 9 43 -3 36
-14 -3 -5 -11 -6 -17 -2 -7 4 -6 -1 2 -10 10 -13 17 -15 27 -6 19 16 18 -1 -2
-22 -15 -17 -15 -18 10 -13 18 3 28 -1 32 -11 3 -8 10 -13 14 -10 4 3 14 -3
21 -13 13 -16 13 -16 -5 -2 -16 12 -18 12 -11 1 6 -10 4 -12 -5 -6 -9 5 -11 4
-6 -4 4 -6 12 -9 17 -6 13 9 11 -9 -3 -24 -11 -11 -10 -12 1 -6 9 5 12 4 8 -2
-3 -5 0 -10 8 -10 8 0 11 5 8 10 -4 6 -1 7 7 2 9 -6 11 -4 5 6 -7 12 -6 12 7
1 13 -10 18 -10 24 -1 4 7 3 9 -4 5 -6 -3 -13 -2 -17 4 -4 6 -11 8 -16 5 -5
-4 -9 -1 -9 5 0 7 7 9 16 6 10 -4 13 -2 8 6 -5 7 -3 8 6 3 9 -6 11 -4 5 5 -5
9 -4 11 3 6 8 -5 10 -2 6 9 -6 14 -8 14 -21 -2 -13 -17 -13 -16 -4 4 15 30 14
36 -6 29 -17 -5 -17 -5 -1 6 15 11 15 13 0 26 -9 7 -11 10 -3 6 10 -5 12 -3 7
5 -6 9 -11 9 -21 1 -10 -8 -16 -7 -23 6 -8 15 -9 15 -15 0 -4 -10 -3 -15 2
-12 5 3 15 -2 22 -11 12 -15 12 -16 -6 -9 -11 4 -34 17 -52 29 -25 17 -29 24
-18 30 8 4 23 3 34 -2 10 -6 21 -7 25 -4 10 11 37 12 30 2 -3 -5 -11 -6 -17
-3 -7 4 -8 3 -4 -2 5 -5 16 -9 25 -9 9 0 26 -19 39 -42 12 -24 19 -43 15 -43
-3 0 4 -7 16 -16 13 -9 19 -20 15 -27 -4 -7 -8 -18 -9 -25 -2 -8 -10 -22 -20
-33 -13 -14 -20 -16 -31 -8 -7 6 -13 8 -13 4 0 -4 -7 -2 -15 5 -8 6 -19 9 -24
6 -14 -9 -25 14 -13 26 15 15 -5 51 -23 44 -10 -3 -12 0 -8 11 4 10 2 14 -4
10 -6 -4 -15 -1 -21 6 -10 12 -12 17 -12 38 0 5 -5 7 -12 3 -7 -4 -8 -3 -4 4
4 7 -2 16 -17 21 -13 5 -31 20 -39 33 -9 12 -30 37 -46 54 -21 20 -28 35 -22
44 4 7 6 20 3 29 -3 9 8 3 23 -14 15 -16 31 -31 36 -31z m-2052 22 c0 -2 -8
-10 -17 -17 -16 -13 -17 -12 -4 4 13 16 21 21 21 13z m2088 -7 c-2 -3 3 -13
10 -22 13 -15 47 -17 69 -4 6 4 16 0 22 -7 8 -10 9 -16 1 -21 -6 -3 -8 -10 -5
-15 3 -5 1 -11 -5 -15 -5 -3 -10 0 -10 8 0 8 -7 21 -17 28 -15 13 -15 12 -5
-8 10 -18 9 -24 -4 -31 -22 -12 -62 -3 -42 9 10 7 9 9 -3 9 -23 0 -44 26 -29
35 8 5 8 11 1 19 -6 7 -8 16 -4 20 8 7 26 3 21 -5z m-1974 -37 c3 -5 -1 -9 -9
-9 -8 0 -12 4 -9 9 3 4 7 8 9 8 2 0 6 -4 9 -8z m-351 -37 c-3 -9 -8 -14 -10
-11 -3 3 -2 9 2 15 9 16 15 13 8 -4z m62 -14 c3 -5 2 -12 -3 -15 -5 -3 -9 1
-9 9 0 17 3 19 12 6z m60 -57 c88 -30 165 -56 170 -58 41 -13 108 -42 147 -63
15 -7 30 -14 33 -14 11 1 119 -51 415 -198 419 -209 444 -223 448 -255 5 -37
-79 -368 -136 -536 -92 -272 -173 -463 -314 -745 -55 -110 -104 -205 -110
-212 -6 -8 -3 -15 11 -22 17 -10 19 -15 9 -36 -6 -13 -15 -22 -20 -19 -4 3 -1
12 8 21 14 15 14 17 -1 26 -14 7 -20 5 -28 -9 -6 -11 -10 -21 -10 -24 1 -3 -4
-11 -10 -19 -9 -12 -9 -13 1 -7 6 4 12 3 12 -2 0 -5 11 -15 25 -22 13 -7 22
-17 19 -22 -3 -4 -1 -8 4 -8 11 0 20 19 18 35 0 6 -5 9 -9 7 -5 -1 -5 3 -1 9
5 8 3 10 -7 4 -9 -5 -8 -2 2 10 14 14 20 15 40 5 17 -10 24 -10 27 -1 2 6 8
11 14 11 6 0 5 -6 -2 -15 -7 -9 -19 -14 -26 -11 -7 3 -16 1 -19 -4 -8 -14 18
-18 40 -7 25 14 47 18 40 8 -2 -5 7 -18 20 -29 27 -23 40 -29 30 -12 -3 6 -1
10 5 10 7 0 10 -7 7 -15 -4 -8 -2 -17 3 -20 6 -4 10 0 10 7 0 8 5 6 11 -5 8
-13 7 -22 -1 -33 -15 -17 1 -19 18 -2 8 8 8 17 1 31 -13 23 1 40 21 26 12 -9
12 -10 -4 -5 -14 5 -17 3 -11 -11 4 -10 8 -24 8 -31 0 -7 5 -11 11 -9 6 2 10
13 8 23 -2 15 -1 16 7 4 7 -10 6 -19 -1 -28 -9 -10 -8 -19 2 -35 12 -19 11
-20 -2 -10 -8 7 -18 10 -22 6 -4 -4 -4 1 0 12 7 20 6 20 -10 0 l-16 -20 6 20
c3 11 2 16 -3 10 -12 -14 -43 -18 -43 -5 0 6 4 9 8 6 5 -3 9 1 9 9 0 8 -4 15
-9 15 -4 0 -7 5 -6 11 2 6 -3 14 -10 16 -11 4 -12 1 -3 -16 7 -12 9 -25 6 -30
-3 -5 -2 -16 1 -25 5 -14 9 -14 22 -4 13 11 15 10 9 -4 -4 -13 -2 -15 10 -11
12 5 14 3 8 -8 -7 -11 -6 -12 7 -2 15 13 28 8 28 -9 0 -5 -5 -6 -12 -2 -7 4
-8 3 -4 -4 10 -17 26 -15 26 2 0 8 6 16 13 19 9 3 9 8 -2 21 -12 15 -12 19 2
34 11 10 17 12 17 4 0 -7 -4 -12 -10 -12 -5 0 -10 -5 -10 -11 0 -47 65 61 195
326 173 353 315 734 391 1048 16 64 31 117 35 117 6 0 220 -170 243 -193 7 -7
39 -34 71 -62 187 -160 399 -371 392 -390 -3 -7 -11 -33 -17 -57 -6 -24 -18
-61 -26 -83 -9 -22 -16 -42 -16 -45 0 -3 -2 -9 -4 -15 -43 -120 -78 -216 -89
-240 -7 -16 -23 -52 -36 -80 -51 -117 -84 -186 -208 -434 -145 -289 -198 -390
-215 -408 -8 -9 -29 -8 -86 4 -41 8 -86 17 -100 19 -135 26 -550 161 -705 229
-16 7 -79 35 -140 61 -107 46 -379 180 -500 246 -33 18 -69 32 -80 33 -11 0
-19 6 -17 13 1 8 -2 11 -8 7 -14 -9 10 -44 27 -38 9 4 11 0 7 -11 -3 -9 -11
-13 -17 -9 -5 3 -7 1 -4 -4 4 -6 1 -16 -7 -22 -11 -9 -13 -5 -10 21 2 17 1 29
-2 25 -4 -3 -8 -20 -10 -38 -3 -26 -1 -30 14 -25 14 5 14 3 -2 -9 -14 -11 -22
-12 -27 -4 -9 16 -32 0 -25 -17 3 -8 -1 -17 -9 -21 -13 -4 -13 -8 -3 -21 11
-13 10 -15 -4 -9 -9 3 -21 0 -26 -6 -12 -14 -11 -72 1 -84 5 -4 5 0 2 9 -4 9
0 18 10 22 11 4 14 2 9 -7 -5 -9 -4 -9 5 -1 7 6 13 18 14 25 2 8 6 19 10 26 4
6 3 14 -3 18 -5 3 -10 11 -10 17 0 6 3 8 7 5 3 -4 12 -2 20 4 15 14 18 -2 2
-18 -7 -7 -3 -11 15 -11 20 0 24 3 16 13 -8 10 -8 15 0 20 6 4 9 13 6 21 -3 7
-1 16 5 19 5 4 6 12 2 18 -4 7 0 6 10 -2 11 -9 17 -10 17 -2 0 6 -5 11 -11 11
-5 0 -7 5 -3 11 4 8 9 7 16 -2 7 -10 7 -7 3 8 -5 18 -2 22 15 20 11 -1 20 -5
20 -10 0 -5 -7 -6 -16 -3 -8 3 -12 2 -9 -4 3 -5 1 -19 -5 -30 -9 -16 -8 -25 2
-38 11 -13 11 -14 -1 -7 -11 6 -13 4 -8 -9 4 -10 3 -15 -3 -11 -10 6 -32 -29
-23 -39 3 -3 13 0 22 7 14 11 14 10 2 -5 -10 -13 -18 -15 -31 -8 -13 7 -21 7
-25 0 -3 -5 1 -10 9 -10 20 0 29 -17 15 -26 -8 -4 -9 -3 -5 4 4 7 3 12 -3 12
-5 0 -16 2 -24 5 -8 4 -14 -1 -15 -10 -1 -8 -3 -22 -4 -30 -1 -8 -5 -12 -10
-9 -4 3 -8 0 -8 -5 0 -6 8 -11 18 -12 14 0 14 -2 -3 -9 -19 -8 -18 -11 7 -14
7 0 14 -10 15 -21 l3 -20 -9 20 c-5 11 -10 16 -10 11 -1 -5 -7 -3 -15 3 -11
10 -14 7 -12 -14 0 -16 6 -23 14 -20 8 3 10 0 6 -7 -5 -7 -2 -9 7 -6 9 4 15
-1 15 -12 0 -16 -2 -16 -27 3 -15 11 -25 25 -23 31 2 7 -5 12 -17 13 -16 2
-18 -1 -9 -12 10 -12 8 -13 -10 -10 -13 2 -25 7 -29 11 -3 4 2 4 11 1 12 -4
16 -1 13 14 -2 10 0 19 4 19 13 0 8 29 -6 35 -9 3 -12 12 -8 25 5 15 2 20 -12
19 -10 0 -13 -3 -6 -5 7 -3 10 -11 7 -19 -3 -7 -1 -16 5 -20 14 -8 14 -35 0
-35 -5 0 -8 4 -5 9 3 5 -1 14 -9 21 -10 9 -15 9 -15 1 0 -6 5 -11 11 -11 5 0
7 -5 4 -10 -3 -6 1 -13 10 -16 14 -6 14 -8 -2 -19 -15 -11 -15 -13 8 -25 13
-7 40 -22 59 -33 415 -237 892 -431 1329 -542 73 -19 136 -36 138 -39 14 -13
-304 -385 -492 -574 l-151 -153 -37 16 c-20 8 -37 13 -37 11 0 -2 -29 6 -65
19 -36 13 -65 22 -65 19 0 -3 -12 1 -27 9 -16 8 -55 24 -88 37 -69 25 -86 32
-137 54 -20 9 -39 16 -43 16 -4 0 -101 46 -214 102 -113 56 -208 102 -211 103
-12 2 -315 157 -327 167 -7 6 -13 7 -13 3 0 -5 -8 -1 -17 7 -10 8 -37 26 -61
38 -45 26 -45 22 -25 115 2 11 6 31 9 45 26 127 128 477 163 555 5 11 28 70
51 130 24 61 63 155 88 210 46 104 220 457 252 510 10 17 16 38 15 48 -3 14 1
17 13 12 9 -3 13 -3 9 1 -4 4 -1 14 6 23 10 13 10 14 -3 5 -8 -6 -27 -9 -43
-8 -15 2 -25 -1 -22 -6 3 -6 -1 -7 -10 -3 -9 3 -13 9 -8 12 5 3 8 13 8 21 0 8
3 18 8 21 5 3 -1 9 -12 12 -17 4 -19 2 -12 -12 6 -10 6 -23 0 -32 -5 -7 -9
-12 -10 -9 0 3 -3 14 -5 25 -3 11 -6 26 -6 33 -1 6 -3 10 -6 7 -3 -2 -13 0
-22 5 -12 7 -21 6 -29 -4 -15 -18 -1 -29 17 -14 11 10 17 8 28 -7 8 -11 10
-21 5 -23 -18 -6 34 -48 56 -45 12 2 25 -1 28 -7 3 -5 -3 -10 -14 -10 -12 0
-21 -2 -21 -4 0 -2 -3 -12 -6 -20 -5 -12 -2 -15 10 -10 9 3 14 9 11 13 -2 4 3
8 12 8 12 0 10 -5 -8 -19 -22 -19 -24 -19 -36 -2 -8 10 -11 25 -8 32 3 9 0 12
-9 9 -8 -3 -20 1 -27 9 -9 10 -14 12 -19 4 -5 -8 -12 -7 -22 4 -18 17 -29 11
-21 -10 3 -8 1 -14 -5 -14 -12 0 -11 18 2 38 5 9 2 20 -9 30 -16 16 -17 16
-11 -4 4 -14 2 -21 -7 -21 -9 0 -12 9 -9 24 2 13 -1 23 -7 23 -6 0 -8 -8 -4
-17 7 -17 6 -17 -11 0 -9 9 -22 17 -27 17 -5 0 -9 7 -9 16 0 11 5 14 18 9 14
-5 15 -4 4 7 -11 11 -16 10 -26 -4 -7 -10 -16 -15 -19 -11 -4 3 -7 1 -7 -4 0
-6 5 -14 10 -16 6 -3 5 -4 -2 -3 -7 1 -13 16 -14 32 -1 16 0 23 3 17 2 -7 9
-13 14 -13 6 0 8 4 5 8 -2 4 -1 14 5 22 7 12 9 12 9 1 0 -8 6 -11 16 -7 9 3
12 2 9 -4 -4 -6 -3 -10 2 -9 20 3 25 -2 13 -16 -7 -8 -17 -12 -23 -8 -6 4 -7
1 -3 -6 5 -7 15 -9 25 -6 37 15 50 14 44 -3 -3 -10 3 -7 16 8 21 26 27 41 14
39 -20 -3 -23 3 -13 24 11 21 11 21 -4 3 -11 -13 -13 -23 -6 -30 14 -14 12
-29 -2 -19 -7 4 -16 8 -20 9 -5 1 -11 2 -14 3 -3 0 2 8 10 17 19 18 12 36 -12
32 -9 -2 -16 3 -15 10 2 6 -2 12 -7 12 -13 0 -13 -13 1 -27 9 -9 7 -12 -9 -10
-14 1 -21 7 -19 17 1 10 -5 14 -22 12 -24 -2 -24 -2 -5 20 l19 23 -22 -19
c-13 -10 -21 -22 -18 -26 2 -3 -5 -14 -16 -24 -12 -10 -18 -20 -15 -23 3 -4
13 2 22 13 14 18 15 18 4 -4 -6 -12 -8 -28 -4 -35 5 -7 1 -6 -10 2 -21 17 -25
13 -58 -59 -12 -25 -24 -47 -28 -50 -10 -7 -106 -198 -170 -340 -143 -316
-276 -699 -340 -977 l-12 -53 -26 19 c-110 78 -413 343 -574 501 l-117 115 20
65 c12 36 22 70 23 75 2 6 6 17 9 25 4 8 16 44 27 80 33 105 117 304 197 470
202 416 339 680 353 680 4 0 52 -9 106 -20 368 -76 779 -229 1243 -466 134
-68 246 -122 249 -119 3 2 13 0 22 -5 15 -8 18 -6 16 8 -2 9 2 21 8 25 7 6 6
7 -4 4 -8 -2 -14 -10 -12 -16 3 -15 -15 -14 -24 1 -4 6 -2 14 5 16 11 4 11 6
0 14 -10 7 -8 8 8 5 15 -3 20 -1 16 9 -2 7 -12 10 -21 6 -15 -5 -15 -4 -3 12
14 17 16 17 29 -1 9 -12 13 -13 10 -3 -3 8 2 21 9 29 8 7 12 20 9 27 -7 17 6
18 23 2 10 -9 12 -9 7 -1 -3 6 1 16 10 21 15 9 15 10 -5 17 -11 3 -19 11 -15
16 4 6 11 6 20 -2 8 -6 17 -9 21 -5 3 3 1 6 -5 6 -6 0 -9 7 -5 16 5 13 8 13
15 2 6 -8 7 -5 2 12 -6 22 -5 23 10 11 9 -7 16 -9 16 -5 0 5 -9 15 -21 22 -12
7 -18 16 -15 19 3 3 12 0 20 -6 11 -9 16 -9 22 0 5 8 3 9 -6 4 -8 -5 -11 -3
-8 6 3 8 11 13 17 11 7 -1 10 2 6 8 -3 5 -1 10 4 10 6 0 11 5 11 11 0 5 -5 7
-10 4 -6 -3 -13 0 -16 9 -7 17 -67 47 -86 43 -7 -2 -10 -2 -5 0 4 3 7 9 7 14
0 6 -4 8 -9 5 -5 -4 -11 -3 -13 1 -7 16 -249 141 -438 227 -253 115 -595 237
-853 303 l-148 39 92 114 c50 63 104 128 119 145 15 16 67 75 115 130 93 105
316 335 325 335 3 -1 77 -26 165 -56z m225 26 c0 -5 -4 -10 -10 -10 -5 0 -10
5 -10 10 0 6 5 10 10 10 6 0 10 -4 10 -10z m57 -9 c0 -11 -5 -18 -9 -15 -4 3
-5 11 -1 19 7 21 12 19 10 -4z m98 -11 c3 -5 1 -10 -4 -10 -6 0 -11 5 -11 10
0 6 2 10 4 10 3 0 8 -4 11 -10z m1974 -26 c-10 -13 -6 -18 13 -15 4 0 5 -6 2
-14 -8 -19 -10 -19 -45 6 -16 11 -34 17 -41 13 -9 -5 -8 -2 1 10 8 9 17 13 20
9 10 -14 46 -9 43 5 -1 8 2 11 8 7 8 -5 7 -11 -1 -21z m-2132 1 c0 -8 -4 -12
-9 -9 -5 3 -6 10 -3 15 9 13 12 11 12 -6z m58 -14 c3 -5 2 -12 -3 -15 -5 -3
-9 1 -9 9 0 17 3 19 12 6z m125 -15 c0 -3 -4 -8 -10 -11 -5 -3 -10 -1 -10 4 0
6 5 11 10 11 6 0 10 -2 10 -4z m185 -6 c-3 -5 -12 -10 -18 -10 -7 0 -6 4 3 10
19 12 23 12 15 0z m205 -154 c0 -2 -8 -10 -17 -17 -16 -13 -17 -12 -4 4 13 16
21 21 21 13z m1641 -416 c6 0 7 5 4 10 -3 6 -1 10 4 10 13 0 14 -17 2 -24 -14
-9 -42 5 -34 17 5 8 8 7 11 -1 2 -7 8 -12 13 -12z m44 -40 c-3 -6 -12 -10 -18
-10 -7 0 -6 4 3 10 21 13 5 24 -17 11 -10 -6 -13 -11 -8 -11 6 0 3 -5 -5 -10
-20 -13 -30 -12 -30 1 0 5 5 7 12 3 8 -5 9 -2 5 10 -4 9 -3 15 2 12 4 -3 17 1
27 9 16 11 20 11 27 -1 4 -8 5 -19 2 -24z m-35 -65 c11 -1 23 2 26 7 3 4 13 8
22 7 12 0 9 -4 -8 -11 -14 -6 -31 -10 -38 -9 -10 2 -11 -2 -3 -18 14 -25 14
-31 -1 -31 -6 0 -8 3 -5 6 4 4 -2 19 -13 34 -11 16 -20 32 -20 37 0 4 4 2 9
-6 5 -8 19 -15 31 -16z m107 0 c0 -8 -4 -12 -9 -9 -5 3 -6 10 -3 15 9 13 12
11 12 -6z m-47 -16 c0 -5 -4 -7 -10 -4 -5 3 -10 1 -10 -4 0 -6 -5 -11 -11 -11
-8 0 -8 5 1 15 14 17 30 20 30 4z m46 -21 c4 -7 3 -8 -5 -4 -6 4 -18 0 -27 -8
-18 -19 -34 -21 -34 -4 0 6 3 9 6 5 4 -3 13 0 21 8 17 18 29 19 39 3z m-129
-20 c2 -18 0 -20 -7 -8 -12 18 -13 30 -2 30 4 0 9 -10 9 -22z m133 -9 c0 -5
-4 -8 -9 -5 -5 3 -11 -1 -15 -9 -3 -8 -1 -15 4 -15 6 0 10 -4 10 -10 0 -17
-14 -11 -28 11 -8 12 -9 18 -4 15 6 -3 12 1 16 9 6 17 26 20 26 4z m-97 -9
c-13 -5 -23 -15 -23 -21 0 -7 -3 -9 -6 -6 -10 10 16 37 35 36 11 0 9 -3 -6 -9z
m41 -16 c3 -8 2 -12 -4 -9 -6 3 -10 1 -10 -4 0 -6 -5 -11 -10 -11 -6 0 -5 8 2
20 15 24 14 24 22 4z m-74 -39 c0 -5 -5 -3 -10 5 -5 8 -10 20 -10 25 0 6 5 3
10 -5 5 -8 10 -19 10 -25z m35 4 c11 -16 1 -19 -13 -3 -7 8 -8 14 -3 14 5 0
13 -5 16 -11z m65 -9 c6 -11 9 -20 8 -20 -2 0 -11 9 -21 20 -9 11 -13 20 -7
20 5 0 14 -9 20 -20z m-84 -15 c-7 -20 9 -19 41 3 15 9 24 12 20 6 -4 -7 0
-15 9 -18 8 -3 13 -10 10 -15 -4 -5 1 -12 9 -14 11 -3 10 -4 -2 -3 -10 1 -17
8 -15 14 3 17 -18 15 -24 -3 -4 -8 -11 -15 -17 -15 -5 0 -2 9 8 20 20 23 14
26 -15 8 -22 -14 -48 1 -36 21 10 16 19 13 12 -4z m-30 -14 c-4 -5 0 -11 6
-14 7 -2 9 -8 5 -13 -9 -10 -28 16 -21 28 3 4 7 8 10 8 3 0 3 -4 0 -9z m49
-49 c0 -7 -4 -12 -10 -11 -5 0 -13 -10 -17 -23 -7 -22 -7 -22 -5 2 1 14 8 24
15 23 15 -4 16 13 2 20 -6 3 -5 4 2 3 7 -2 13 -8 13 -14z m80 6 c5 4 5 1 1 -6
-5 -9 -12 -9 -27 -2 -21 12 -22 10 -13 -14 3 -9 11 -13 17 -9 6 3 7 1 3 -5 -7
-11 -44 -8 -55 4 -3 4 2 4 13 0 14 -5 17 -3 12 10 -9 24 2 36 23 24 10 -5 22
-6 26 -2z m-122 -13 c-3 -9 -8 -14 -10 -11 -3 3 -2 9 2 15 9 16 15 13 8 -4z
m-3718 -37 c2 -2 -25 -59 -59 -129 -33 -69 -74 -154 -90 -190 -16 -35 -49
-105 -73 -155 -24 -50 -43 -96 -43 -102 0 -6 -4 -12 -8 -14 -4 -1 -25 -46 -46
-98 -21 -52 -43 -106 -49 -120 -6 -14 -11 -27 -12 -30 -1 -3 -7 -18 -14 -35
-10 -25 -102 -302 -118 -355 -5 -18 -19 -2 -100 120 -189 283 -288 626 -232
800 23 71 93 143 190 198 50 28 200 79 255 87 21 3 45 8 51 10 7 2 50 7 95 11
46 3 84 7 85 8 3 3 165 -3 168 -6z m3735 -42 c0 -6 -7 -1 -15 10 -8 10 -15 23
-15 28 0 6 7 1 15 -10 8 -10 15 -23 15 -28z m46 22 c1 -10 -2 -18 -8 -18 -6 0
-7 7 -4 16 4 12 2 15 -9 10 -8 -3 -15 -1 -15 5 0 18 33 5 36 -13z m-83 -29
c-8 -8 -13 -7 -18 2 -6 8 -4 10 5 4 10 -6 12 -4 6 11 -6 15 -5 17 5 7 9 -10
10 -16 2 -24z m122 20 c11 -16 1 -19 -13 -3 -7 8 -8 14 -3 14 5 0 13 -5 16
-11z m-60 -19 c3 -5 1 -10 -4 -10 -6 0 -11 5 -11 10 0 6 2 10 4 10 3 0 8 -4
11 -10z m45 0 c0 -5 -8 -10 -17 -10 -15 0 -16 2 -3 10 19 12 20 12 20 0z m-72
-31 c3 -11 2 -11 -7 1 -9 13 -12 13 -24 -3 -13 -18 -13 -18 -28 0 -13 16 -12
17 2 5 14 -10 18 -10 23 4 7 18 28 14 34 -7z m101 -2 c0 -9 -2 -8 -6 1 -2 6
-10 9 -15 6 -7 -4 -8 -2 -4 5 9 13 26 5 25 -12z m-53 -19 c1 -10 -2 -18 -8
-18 -6 0 -7 7 -4 16 4 12 2 15 -9 10 -8 -3 -15 -1 -15 5 0 18 33 5 36 -13z
m-50 -16 c1 -7 0 -8 -3 -2 -2 5 -9 8 -14 4 -5 -3 -9 0 -9 6 0 15 23 7 26 -8z
m-35 -25 c-8 -8 -14 -7 -23 2 -11 10 -9 11 6 5 15 -6 17 -4 11 6 -6 9 -4 11 4
5 9 -5 10 -10 2 -18z m61 -23 c-6 -12 -9 -7 -9 16 0 23 3 28 9 16 5 -9 5 -23
0 -32z m48 36 c-8 -5 -19 -10 -25 -10 -5 0 -3 5 5 10 8 5 20 10 25 10 6 0 3
-5 -5 -10z m-102 -55 c-3 -3 -9 2 -12 12 -6 14 -5 15 5 6 7 -7 10 -15 7 -18z
m92 21 c0 -2 -7 -7 -16 -10 -8 -3 -12 -2 -9 4 6 10 25 14 25 6z m-69 -29 c-10
-9 -11 -8 -5 6 3 10 9 15 12 12 3 -3 0 -11 -7 -18z m64 3 c-3 -5 -12 -10 -18
-10 -7 0 -6 4 3 10 19 12 23 12 15 0z m-15 -26 c0 -2 -11 -3 -24 -2 -14 1 -23
5 -20 9 4 7 44 0 44 -7z m30 6 c0 -5 -5 -10 -11 -10 -5 0 -7 5 -4 10 3 6 8 10
11 10 2 0 4 -4 4 -10z m-1923 -65 c0 -8 -4 -12 -9 -9 -5 3 -6 10 -3 15 9 13
12 11 12 -6z m-42 -23 c-3 -3 -11 0 -18 7 -9 10 -8 11 6 5 10 -3 15 -9 12 -12z
m95 -17 c8 -15 19 -22 31 -20 10 2 21 -1 24 -6 4 -5 11 -7 16 -3 5 3 7 10 3
15 -3 5 -10 6 -16 3 -7 -5 -8 -2 -3 6 5 8 4 11 -3 7 -12 -8 -42 1 -42 13 0 13
47 3 68 -16 24 -20 20 -31 -16 -45 -18 -7 -22 -13 -14 -21 12 -12 -5 -61 -18
-53 -4 3 -13 -2 -20 -10 -10 -12 -9 -16 4 -21 9 -3 13 -11 9 -17 -4 -6 -11 -3
-20 8 -12 17 -13 17 -13 2 0 -19 -33 -18 -67 2 -23 14 -8 14 18 1 13 -8 19 -7
19 0 0 6 -7 13 -15 16 -8 4 -15 10 -15 15 0 4 7 6 15 2 9 -3 15 -2 14 3 -4 24
2 33 19 27 14 -6 15 -4 5 8 -10 12 -10 18 -1 27 9 9 9 15 0 24 -7 7 -12 16
-12 21 0 5 9 -2 21 -17 19 -25 39 -27 39 -5 0 6 -4 8 -9 5 -5 -3 -21 10 -35
29 -15 19 -20 32 -13 29 8 -3 20 -16 27 -29z m-44 3 c3 -4 -1 -5 -10 -4 -8 1
-18 5 -22 8 -3 4 1 5 10 4 8 -1 18 -5 22 -8z m-26 -42 c-7 -7 -13 -7 -20 0 -6
6 -3 10 10 10 13 0 16 -4 10 -10z m33 -17 c-8 -8 -13 -7 -18 2 -6 8 -4 10 5 4
10 -6 12 -4 6 11 -6 15 -5 17 5 7 9 -10 10 -16 2 -24z m-16 -26 c2 -6 -1 -14
-6 -18 -7 -3 -8 0 -5 9 4 11 0 14 -15 11 -12 -2 -19 0 -16 5 7 11 38 6 42 -7z
m-27 -88 c0 -7 -30 -13 -34 -7 -3 4 4 9 15 9 10 1 19 0 19 -2z m67 -19 c3 -3
-1 -11 -8 -19 -12 -13 -16 -12 -27 7 -10 15 -12 16 -8 3 3 -10 0 -25 -8 -32
-7 -7 -12 -30 -11 -49 2 -39 -5 -44 -29 -20 -20 20 -20 30 0 38 16 6 11 26 -7
26 -6 0 -7 -4 -4 -10 3 -5 1 -10 -4 -10 -21 0 -11 19 19 37 17 9 30 23 30 30
0 13 45 12 57 -1z m-907 -26 c-6 -11 -16 -20 -23 -20 -7 0 -6 4 3 10 13 9 13
10 0 10 -13 0 -13 1 0 10 24 15 32 12 20 -10z m70 -15 c-7 -9 -15 -13 -17 -11
-7 7 7 26 19 26 6 0 6 -6 -2 -15z m2551 -12 c12 -16 12 -17 -2 -6 -9 7 -20 9
-24 5 -5 -4 -5 -1 -1 6 9 16 11 15 27 -5z m-1840 -27 c5 3 9 0 9 -6 0 -15 -23
-7 -26 8 -1 7 0 8 3 2 2 -5 9 -8 14 -4z m-841 -10 c0 -2 -7 -7 -16 -10 -8 -3
-12 -2 -9 4 6 10 25 14 25 6z m-6 -34 c3 -5 -1 -9 -9 -9 -8 0 -12 4 -9 9 3 4
7 8 9 8 2 0 6 -4 9 -8z m41 -2 c3 -6 -1 -7 -9 -4 -18 7 -21 14 -7 14 6 0 13
-4 16 -10z m65 -5 c0 -1 -12 -2 -26 -2 -17 0 -22 2 -13 7 10 7 39 3 39 -5z
m-85 -15 c-3 -5 -12 -10 -18 -10 -7 0 -6 4 3 10 19 12 23 12 15 0z m2735 6 c0
-3 -4 -8 -10 -11 -5 -3 -10 -1 -10 4 0 6 5 11 10 11 6 0 10 -2 10 -4z m100
-93 c88 -131 164 -285 205 -417 43 -134 50 -176 50 -291 0 -73 -5 -99 -23
-136 -82 -167 -336 -274 -679 -285 -79 -3 -143 -3 -143 -1 0 3 30 67 66 143
195 412 261 555 283 614 7 19 19 49 27 65 30 70 33 82 21 94 -9 10 -9 12 2 9
8 -2 19 13 28 37 16 41 72 218 78 245 2 8 4 16 4 18 4 13 26 -13 81 -95z
m-2743 72 c0 -7 -6 -12 -13 -12 -7 0 -15 5 -17 12 -3 6 3 11 12 11 10 0 18 -5
18 -11z m2576 0 c-3 -9 -8 -14 -10 -11 -3 3 -2 9 2 15 9 16 15 13 8 -4z m-33
-3 c0 -5 -7 -9 -15 -9 -8 0 -12 4 -9 9 3 4 9 8 15 8 5 0 9 -4 9 -8z m-2620
-16 c0 -3 -4 -8 -10 -11 -5 -3 -10 -1 -10 4 0 6 5 11 10 11 6 0 10 -2 10 -4z
m2621 -23 c13 -16 12 -17 -3 -4 -17 13 -22 21 -14 21 2 0 10 -8 17 -17z
m-2527 -9 c3 -8 2 -12 -4 -9 -6 3 -10 10 -10 16 0 14 7 11 14 -7z m81 -3 c3
-5 2 -12 -3 -15 -5 -3 -9 1 -9 9 0 17 3 19 12 6z m49 -10 c4 -5 -3 -7 -14 -4
-23 6 -26 13 -6 13 8 0 17 -4 20 -9z m-9 -29 c-3 -3 -11 0 -18 7 -9 10 -8 11
6 5 10 -3 15 -9 12 -12z m2415 14 c0 -2 -8 -10 -17 -17 -16 -13 -17 -12 -4 4
13 16 21 21 21 13z m-90 -21 c0 -7 -30 -13 -34 -7 -3 4 4 9 15 9 10 1 19 0 19
-2z m-3760 -25 c0 -5 -5 -10 -11 -10 -5 0 -7 5 -4 10 3 6 8 10 11 10 2 0 4 -4
4 -10z m85 0 c-3 -5 -12 -10 -18 -10 -7 0 -6 4 3 10 19 12 23 12 15 0z m3655
-20 c0 -5 -2 -10 -4 -10 -3 0 -8 5 -11 10 -3 6 -1 10 4 10 6 0 11 -4 11 -10z
m0 -40 c0 -5 -2 -10 -4 -10 -3 0 -8 5 -11 10 -3 6 -1 10 4 10 6 0 11 -4 11
-10z m-3803 -35 c0 -8 -4 -12 -9 -9 -5 3 -6 10 -3 15 9 13 12 11 12 -6z m3818
-4 c-9 -8 -36 -10 -30 -2 2 4 11 8 20 8 8 0 13 -3 10 -6z m-3884 -34 c-10 -9
-11 -8 -5 6 3 10 9 15 12 12 3 -3 0 -11 -7 -18z m65 -23 c1 -9 0 -13 -4 -10
-3 4 -7 14 -8 22 -1 9 0 13 4 10 3 -4 7 -14 8 -22z m3775 9 c12 -16 12 -17 -2
-6 -9 7 -20 9 -24 5 -5 -4 -5 -1 -1 6 9 16 11 15 27 -5z m65 -29 c1 -9 0 -13
-4 -10 -3 4 -7 14 -8 22 -1 9 0 13 4 10 3 -4 7 -14 8 -22z m-76 -58 c0 -2 -7
-7 -16 -10 -8 -3 -12 -2 -9 4 6 10 25 14 25 6z m45 -6 c3 -6 -1 -7 -9 -4 -18
7 -21 14 -7 14 6 0 13 -4 16 -10z m-3794 -33 c-10 -9 -11 -8 -5 6 3 10 9 15
12 12 3 -3 0 -11 -7 -18z m-30 -4 c13 -16 12 -17 -3 -4 -10 7 -18 15 -18 17 0
8 8 3 21 -13z m2354 -53 c-2 -38 -9 -45 -32 -30 -17 10 -16 11 3 5 17 -4 20
-1 19 17 -2 21 2 38 9 38 1 0 2 -13 1 -30z m-2480 2 c-3 -3 -11 0 -18 7 -9 10
-8 11 6 5 10 -3 15 -9 12 -12z m36 1 c13 -16 12 -17 -3 -4 -10 7 -18 15 -18
17 0 8 8 3 21 -13z m-31 -27 c0 -3 -4 -8 -10 -11 -5 -3 -10 -1 -10 4 0 6 5 11
10 11 6 0 10 -2 10 -4z m2385 -6 c-3 -5 -11 -10 -16 -10 -6 0 -7 5 -4 10 3 6
11 10 16 10 6 0 7 -4 4 -10z m-2251 -18 c3 -5 -1 -9 -9 -9 -8 0 -12 4 -9 9 3
4 7 8 9 8 2 0 6 -4 9 -8z m2526 -7 c0 -2 -9 -3 -19 -2 -11 0 -18 5 -15 9 4 6
34 0 34 -7z m-2660 1 c0 -2 -8 -10 -17 -17 -16 -13 -17 -12 -4 4 13 16 21 21
21 13z m2405 -26 c4 -6 11 -7 17 -4 7 4 8 2 4 -4 -8 -14 -35 -3 -57 24 -13 16
-12 16 8 6 12 -7 25 -17 28 -22z m194 14 c5 4 12 2 15 -2 3 -5 -5 -9 -17 -8
-12 1 -25 -3 -29 -9 -4 -5 -6 0 -5 12 1 16 4 19 14 12 7 -6 17 -8 22 -5z m96
-4 c3 -5 1 -10 -4 -10 -6 0 -11 5 -11 10 0 6 2 10 4 10 3 0 8 -4 11 -10z m19
-79 c-4 -3 -9 0 -11 7 -3 6 -10 9 -15 6 -7 -4 -8 -2 -4 5 6 9 11 9 22 0 8 -6
12 -15 8 -18z m-2708 -3 c3 -4 -1 -5 -10 -4 -8 1 -18 5 -22 8 -3 4 1 5 10 4 8
-1 18 -5 22 -8z m1862 -33 c-3 -3 -9 2 -12 12 -6 14 -5 15 5 6 7 -7 10 -15 7
-18z m-8 -29 c0 -6 -7 -1 -15 10 -8 10 -15 23 -15 28 0 6 7 1 15 -10 8 -10 15
-23 15 -28z m-1806 26 c3 -5 -1 -9 -9 -9 -8 0 -12 4 -9 9 3 4 7 8 9 8 2 0 6
-4 9 -8z m1781 -22 c3 -5 1 -10 -4 -10 -6 0 -11 5 -11 10 0 6 2 10 4 10 3 0 8
-4 11 -10z m-111 -30 c-6 -6 -10 -2 -11 12 -2 16 1 18 10 9 7 -7 8 -14 1 -21z
m36 16 c0 -3 -4 -8 -10 -11 -5 -3 -10 -1 -10 4 0 6 5 11 10 11 6 0 10 -2 10
-4z m80 -40 c0 -3 -4 -8 -10 -11 -5 -3 -10 -1 -10 4 0 6 5 11 10 11 6 0 10 -2
10 -4z m-140 -32 c-6 -6 -6 -15 -2 -20 4 -4 -1 -2 -11 5 -15 12 -17 12 -11 -5
6 -15 4 -17 -6 -7 -17 16 -7 39 18 39 14 0 18 -4 12 -12z m145 -14 c3 -6 -1
-7 -9 -4 -18 7 -21 14 -7 14 6 0 13 -4 16 -10z m-104 -47 c-12 -20 -14 -14 -5
12 4 9 9 14 11 11 3 -2 0 -13 -6 -23z m52 12 c-3 -9 -8 -14 -10 -11 -3 3 -2 9
2 15 9 16 15 13 8 -4z m-36 -50 c0 -8 -4 -12 -9 -9 -4 3 -8 9 -8 15 0 5 4 9 8
9 5 0 9 -7 9 -15z m38 -54 c3 -5 2 -12 -3 -15 -5 -3 -9 1 -9 9 0 17 3 19 12 6z
m-1918 -68 c0 -9 -4 -10 -14 -2 -7 6 -13 12 -13 14 0 1 6 2 13 2 8 0 14 -6 14
-14z m-22 -13 c3 -5 1 -10 -4 -10 -6 0 -11 5 -11 10 0 6 2 10 4 10 3 0 8 -4
11 -10z m55 -5 c7 -9 8 -15 2 -15 -5 0 -12 7 -16 15 -3 8 -4 15 -2 15 2 0 9
-7 16 -15z m-50 -55 c0 -5 -5 -10 -11 -10 -5 0 -7 5 -4 10 3 6 8 10 11 10 2 0
4 -4 4 -10z m54 -6 c9 -24 2 -26 -12 -4 -7 11 -8 20 -3 20 5 0 12 -7 15 -16z
m49 1 c-3 -9 -8 -14 -10 -11 -3 3 -2 9 2 15 9 16 15 13 8 -4z m-43 -60 c0 -11
-14 7 -31 40 -7 13 -3 12 10 -5 11 -14 21 -29 21 -35z m-45 36 c3 -5 0 -13 -6
-17 -7 -4 -9 -3 -5 4 3 5 0 13 -6 15 -9 4 -10 6 -1 6 6 1 14 -3 18 -8z m70
-11 c3 -5 1 -10 -4 -10 -6 0 -11 5 -11 10 0 6 2 10 4 10 3 0 8 -4 11 -10z m35
0 c0 -5 -4 -10 -10 -10 -5 0 -10 5 -10 10 0 6 5 10 10 10 6 0 10 -4 10 -10z
m-125 -20 c3 -6 -1 -7 -9 -4 -18 7 -21 14 -7 14 6 0 13 -4 16 -10z m55 -34 c0
-12 -5 -7 -19 24 -11 24 -11 24 3 6 9 -11 16 -24 16 -30z m50 19 c0 -8 -4 -15
-10 -15 -5 0 -7 7 -4 15 4 8 8 15 10 15 2 0 4 -7 4 -15z m-85 -5 c-3 -5 -12
-10 -18 -10 -7 0 -6 4 3 10 19 12 23 12 15 0z m-35 -20 c0 -5 -5 -10 -11 -10
-5 0 -7 5 -4 10 3 6 8 10 11 10 2 0 4 -4 4 -10z m96 -18 c-2 -9 4 -23 13 -30
14 -11 13 -11 -7 -2 -12 6 -20 15 -17 21 4 5 0 9 -7 10 -10 0 -10 2 0 6 6 2 9
10 6 15 -4 6 -2 8 4 5 5 -4 9 -15 8 -25z m37 8 c-3 -12 -8 -19 -11 -16 -5 6 5
36 12 36 2 0 2 -9 -1 -20z m-93 -10 c0 -5 -8 -10 -17 -10 -15 0 -16 2 -3 10
19 12 20 12 20 0z m-49 -37 c-12 -20 -14 -14 -5 12 4 9 9 14 11 11 3 -2 0 -13
-6 -23z m89 -7 c0 -6 -7 -3 -14 6 -7 10 -17 14 -21 10 -5 -4 -5 -1 -1 6 6 10
11 10 22 1 8 -6 14 -17 14 -23z m-57 7 c-20 -7 -15 -19 7 -20 13 -1 18 2 14 9
-4 7 -2 8 5 4 6 -4 9 -12 6 -17 -6 -9 -40 -7 -51 3 -9 9 5 28 19 27 9 0 9 -2
0 -6z m84 -22 c-10 -4 -17 -11 -16 -16 1 -6 -5 -11 -14 -13 -9 -2 -17 1 -17 7
0 6 7 8 15 4 9 -3 15 -2 14 3 -3 18 1 24 19 23 16 0 16 -1 -1 -8z m-118 -17
c14 9 9 -29 -6 -45 -12 -15 -11 -17 12 -23 15 -4 23 -11 19 -17 -4 -7 2 -9 17
-5 13 3 18 3 11 0 -6 -3 -9 -10 -6 -16 4 -6 -2 -5 -15 1 -11 7 -21 16 -21 20
0 5 -10 11 -22 14 -21 6 -21 7 -5 25 17 19 23 37 9 28 -4 -2 -8 5 -9 17 0 12
1 16 4 9 3 -6 8 -10 12 -8z m56 -17 c14 -11 15 -16 5 -22 -9 -6 -11 -4 -5 5 5
8 3 11 -6 8 -8 -3 -13 -14 -12 -24 1 -10 0 -13 -3 -6 -3 6 -11 9 -17 5 -7 -3
-4 3 6 14 14 16 15 22 5 26 -7 3 -8 6 -2 6 5 1 18 -5 29 -12z m40 -27 c-3 -5
-11 -10 -16 -10 -6 0 -7 5 -4 10 3 6 11 10 16 10 6 0 7 -4 4 -10z m-25 -25
c11 -13 10 -14 -4 -9 -9 3 -16 10 -16 15 0 13 6 11 20 -6z m-64 -43 c1 -7 0
-8 -3 -2 -2 5 -9 10 -14 10 -6 0 -5 -8 1 -20 6 -11 8 -20 5 -20 -3 0 -8 0 -12
0 -6 0 -8 24 -4 46 2 10 25 -2 27 -14z m41 -49 c-2 -25 -27 -47 -27 -23 0 6 4
9 9 6 5 -3 9 6 9 19 0 20 -3 23 -14 14 -10 -8 -14 -8 -14 0 0 6 5 11 11 11 5
0 7 6 3 13 -6 9 -3 8 8 -1 9 -7 16 -25 15 -39z m-37 -13 c0 -5 -4 -10 -10 -10
-5 0 -10 5 -10 10 0 6 5 10 10 10 6 0 10 -4 10 -10z m-4 -68 c1 -12 7 -28 14
-37 7 -8 9 -15 6 -15 -10 0 -39 30 -29 30 4 0 1 5 -7 10 -10 6 -11 10 -2 10 6
0 12 4 12 10 0 5 -7 6 -17 3 -11 -4 -14 -3 -9 6 11 18 31 8 32 -17z m33 -17
c1 6 6 3 11 -5 13 -20 12 -30 -1 -30 -5 0 -8 4 -5 9 3 5 -1 11 -9 15 -8 3 -15
13 -14 23 0 16 1 16 9 -2 5 -11 9 -15 9 -10z m1284 -405 c3 0 77 -34 164 -76
87 -41 167 -79 178 -84 11 -4 77 -36 147 -69 70 -34 130 -61 133 -61 3 0 24
-9 48 -19 59 -27 266 -103 274 -102 2 0 23 -8 49 -19 25 -11 56 -20 69 -20 13
0 26 -4 29 -9 6 -9 74 -26 90 -22 51 12 -177 -141 -299 -201 -259 -129 -512
-176 -641 -119 -126 55 -228 228 -270 459 -16 89 -30 332 -20 358 6 15 8 16
24 0 10 -9 21 -16 25 -16z m558 -107 c13 -16 12 -17 -3 -4 -17 13 -22 21 -14
21 2 0 10 -8 17 -17z m240 -106 c-10 -9 -11 -8 -5 6 3 10 9 15 12 12 3 -3 0
-11 -7 -18z m83 7 c3 -8 2 -12 -4 -9 -6 3 -10 10 -10 16 0 14 7 11 14 -7z m59
-19 c4 -8 3 -16 -1 -19 -4 -3 -9 4 -9 15 -2 23 3 25 10 4z m-37 -31 c1 -9 0
-13 -4 -10 -3 4 -7 14 -8 22 -1 9 0 13 4 10 3 -4 7 -14 8 -22z m84 16 c0 -5
-2 -10 -4 -10 -3 0 -8 5 -11 10 -3 6 -1 10 4 10 6 0 11 -4 11 -10z m-120 -36
c0 -8 -19 -13 -24 -6 -3 5 1 9 9 9 8 0 15 -2 15 -3z m80 -4 c0 -5 -5 -10 -11
-10 -5 0 -7 5 -4 10 3 6 8 10 11 10 2 0 4 -4 4 -10z m-125 -20 c3 -5 1 -10 -4
-10 -6 0 -11 5 -11 10 0 6 2 10 4 10 3 0 8 -4 11 -10z m65 -36 c0 -8 -19 -13
-24 -6 -3 5 1 9 9 9 8 0 15 -2 15 -3z m15 -23 c3 -5 2 -12 -3 -15 -5 -3 -9 1
-9 9 0 17 3 19 12 6z m85 -1 c0 -5 -5 -10 -11 -10 -5 0 -7 5 -4 10 3 6 8 10
11 10 2 0 4 -4 4 -10z m350 6 c0 -2 -8 -10 -17 -17 -16 -13 -17 -12 -4 4 13
16 21 21 21 13z m-250 -30 c-7 -7 -13 -7 -20 0 -6 6 -3 10 10 10 13 0 16 -4
10 -10z m111 -3 c13 -16 12 -17 -3 -4 -17 13 -22 21 -14 21 2 0 10 -8 17 -17z
m94 7 c-3 -5 -12 -10 -18 -10 -7 0 -6 4 3 10 19 12 23 12 15 0z m-310 -9 c3
-5 2 -12 -3 -15 -5 -3 -9 1 -9 9 0 17 3 19 12 6z m105 -29 c0 -5 -7 -9 -15 -9
-8 0 -12 4 -9 9 3 4 9 8 15 8 5 0 9 -4 9 -8z m605 -20 c-3 -3 -11 0 -18 7 -9
10 -8 11 6 5 10 -3 15 -9 12 -12z m-30 -1 c3 -5 2 -12 -3 -15 -5 -3 -9 1 -9 9
0 17 3 19 12 6z m67 -9 c-7 -2 -9 -9 -5 -15 3 -7 2 -8 -2 -4 -16 14 -14 36 3
29 10 -4 12 -7 4 -10z m-522 4 c0 -2 -6 -9 -14 -15 -11 -9 -16 -9 -22 0 -4 7
-3 9 4 5 6 -3 13 -2 17 4 6 10 15 14 15 6z m485 -16 c-3 -5 -12 -10 -18 -10
-7 0 -6 4 3 10 19 12 23 12 15 0z m119 -2 c-4 -5 -8 -7 -12 -4 -3 3 -11 -2
-19 -12 -13 -15 -13 -15 -4 4 5 11 17 21 25 21 8 0 13 -4 10 -9z m67 -5 c13
-16 12 -17 -3 -4 -17 13 -22 21 -14 21 2 0 10 -8 17 -17z m36 11 c-3 -4 -2
-15 3 -25 13 -23 -3 -34 -27 -19 -15 9 -15 10 5 5 21 -6 23 -5 13 13 -9 17 -6
32 7 32 3 0 2 -3 -1 -6z m-269 -29 c-3 -3 -9 2 -12 12 -6 14 -5 15 5 6 7 -7
10 -15 7 -18z m310 17 c15 11 15 11 5 -3 -13 -16 -8 -29 9 -29 5 0 7 4 3 9 -6
10 33 36 42 28 2 -3 -5 -8 -16 -12 -12 -3 -19 -10 -16 -15 3 -5 0 -12 -5 -15
-13 -8 -50 22 -49 39 0 6 3 5 6 -2 4 -10 8 -10 21 0z m-253 -12 c-3 -5 -1 -10
5 -10 6 0 8 -4 5 -10 -10 -16 -23 -11 -20 8 5 23 4 22 11 22 3 0 2 -4 -1 -10z
m55 -10 c7 -14 7 -20 0 -20 -5 0 -10 7 -10 16 0 9 -5 12 -12 8 -7 -4 -8 -3 -4
4 10 16 14 15 26 -8z m100 8 c0 -5 0 -12 0 -18 0 -5 -5 -10 -11 -10 -8 0 -8 4
1 14 9 12 8 15 -10 13 -15 -1 -20 -7 -18 -22 2 -15 -2 -20 -20 -19 -15 0 -21
-4 -18 -13 3 -7 1 -13 -5 -13 -6 0 -9 8 -7 18 2 11 11 16 27 14 15 -2 21 0 16
8 -11 18 2 37 24 36 12 0 21 -4 21 -8z m189 -28 c0 -10 -3 -8 -9 5 -12 27 -12
43 0 25 5 -8 9 -22 9 -30z m61 13 c-25 -18 -38 -10 -21 11 7 8 19 12 27 9 12
-4 11 -8 -6 -20z m-492 3 c-7 -8 -15 -12 -17 -11 -5 6 10 25 20 25 5 0 4 -6
-3 -14z m43 -13 c-12 -20 -14 -14 -5 12 4 9 9 14 11 11 3 -2 0 -13 -6 -23z
m363 1 c10 -25 -1 -29 -14 -5 -6 12 -7 21 -1 21 5 0 12 -7 15 -16z m-342 -50
c-6 -12 -9 -7 -9 16 0 23 3 28 9 16 5 -9 5 -23 0 -32z m48 36 c0 -5 -8 -10
-17 -10 -15 0 -16 2 -3 10 19 12 20 12 20 0z m160 0 c0 -5 -4 -10 -10 -10 -5
0 -10 5 -10 10 0 6 5 10 10 10 6 0 10 -4 10 -10z m60 -1 c0 -5 5 -7 12 -3 7 4
8 3 4 -5 -6 -9 -11 -9 -22 0 -17 14 -18 19 -4 19 6 0 10 -5 10 -11z m43 -6
c-4 -11 -3 -14 5 -9 8 5 10 1 5 -11 -7 -17 -6 -17 18 -1 17 11 31 13 40 7 10
-6 10 -9 2 -9 -7 0 -15 1 -16 3 -2 1 -12 -5 -22 -13 -15 -13 -19 -12 -30 3 -6
9 -16 13 -20 9 -4 -4 -2 3 4 16 14 26 23 30 14 5z m-243 -8 c0 -8 -4 -15 -10
-15 -5 0 -7 7 -4 15 4 8 8 15 10 15 2 0 4 -7 4 -15z m177 -22 c-1 -15 -8 -28
-15 -29 -7 -1 -8 0 -2 3 5 2 10 9 10 14 0 6 -4 8 -9 4 -15 -9 -24 15 -11 30
17 20 29 10 27 -22z m160 31 c-3 -3 -12 -4 -19 -1 -8 3 -5 6 6 6 11 1 17 -2
13 -5z m-513 -18 c-10 -8 -21 -12 -24 -10 -5 6 21 24 34 24 6 0 1 -6 -10 -14z
m81 5 c-9 -8 -36 -10 -30 -2 2 4 11 8 20 8 8 0 13 -3 10 -6z m202 3 c-3 -3
-12 -4 -19 -1 -8 3 -5 6 6 6 11 1 17 -2 13 -5z m-250 -20 c-3 -3 -12 -4 -19
-1 -8 3 -5 6 6 6 11 1 17 -2 13 -5z m113 2 c0 -2 -7 -7 -16 -10 -8 -3 -12 -2
-9 4 6 10 25 14 25 6z m148 -24 c2 -12 -1 -22 -6 -22 -6 0 -8 8 -5 18 3 13 -2
18 -17 19 -19 2 -20 0 -8 -15 12 -15 11 -16 -4 -3 -22 17 -14 32 15 27 13 -2
23 -11 25 -24z m108 12 c18 -14 18 -14 -6 -3 -31 14 -36 19 -24 19 6 0 19 -7
30 -16z m-209 0 c-3 -3 -12 -4 -19 -1 -8 3 -5 6 6 6 11 1 17 -2 13 -5z m-37
-14 c0 -5 -2 -10 -4 -10 -3 0 -8 5 -11 10 -3 6 -1 10 4 10 6 0 11 -4 11 -10z
m216 -5 c-3 -8 0 -15 6 -15 6 0 9 -3 5 -6 -10 -11 -26 6 -20 21 3 8 7 15 10
15 3 0 3 -7 -1 -15z m-136 -5 c0 -5 -8 -10 -17 -10 -15 0 -16 2 -3 10 19 12
20 12 20 0z m195 -10 c-28 -12 -37 -12 -30 0 3 6 16 10 28 9 21 0 21 -1 2 -9z"/>
<path d="M4987 4964 c3 -7 9 -14 14 -14 14 0 10 17 -5 23 -10 4 -13 1 -9 -9z"/>
<path d="M4990 4886 c0 -2 7 -9 15 -16 13 -11 14 -10 9 4 -5 14 -24 23 -24 12z"/>
<path d="M5101 4847 c-9 -12 -7 -14 9 -13 11 0 21 5 21 11 1 16 -17 17 -30 2z"/>
<path d="M5105 4810 c-4 -6 -10 -8 -15 -5 -5 3 -11 1 -15 -5 -4 -6 -12 -7 -18
-4 -7 4 -8 3 -4 -2 5 -5 12 -9 15 -9 4 0 12 -4 18 -8 7 -4 17 0 24 8 7 8 9 15
4 15 -5 0 -2 5 6 10 9 6 10 10 3 10 -6 0 -15 -5 -18 -10z m5 -16 c0 -8 -19
-13 -24 -6 -3 5 1 9 9 9 8 0 15 -2 15 -3z"/>
<path d="M4902 5039 c2 -6 7 -9 12 -7 4 2 14 -8 21 -22 8 -14 14 -19 15 -12 0
7 6 10 13 7 6 -4 -1 5 -18 19 -32 27 -49 33 -43 15z"/>
<path d="M4986 5041 c-4 -5 -2 -12 3 -15 5 -4 12 -2 15 3 4 5 2 12 -3 15 -5 4
-12 2 -15 -3z"/>
<path d="M3456 3581 c-4 -5 3 -7 14 -4 23 6 26 13 6 13 -8 0 -17 -4 -20 -9z"/>
<path d="M3470 3560 c0 -5 5 -10 11 -10 5 0 7 5 4 10 -3 6 -8 10 -11 10 -2 0
-4 -4 -4 -10z"/>
<path d="M2432 3485 c-1 -14 2 -25 6 -25 5 0 8 9 7 20 -2 29 -10 33 -13 5z"/>
<path d="M3411 3487 c-8 -10 -7 -14 2 -14 8 0 14 6 14 14 0 7 -1 13 -2 13 -2
0 -8 -6 -14 -13z"/>
<path d="M2595 3404 c2 -18 -1 -24 -12 -20 -8 3 -11 2 -8 -3 3 -6 14 -9 25 -8
14 1 16 4 9 14 -6 7 -8 17 -5 22 4 5 2 12 -3 15 -5 4 -8 -5 -6 -20z"/>
<path d="M2550 3410 c0 -5 5 -10 11 -10 5 0 7 5 4 10 -3 6 -8 10 -11 10 -2 0
-4 -4 -4 -10z"/>
<path d="M3340 3406 c0 -2 7 -6 15 -10 8 -3 15 -1 15 4 0 6 -7 10 -15 10 -8 0
-15 -2 -15 -4z"/>
<path d="M2653 3373 c0 -11 7 -20 14 -20 10 0 10 4 1 16 -7 9 -13 18 -15 20
-1 2 -1 -5 0 -16z"/>
<path d="M3326 3359 c4 -8 30 -6 38 2 3 3 -5 5 -19 5 -13 0 -22 -3 -19 -7z"/>
<path d="M2536 3305 c9 -14 22 -24 28 -22 6 3 18 -2 28 -10 10 -9 18 -11 22
-4 4 5 -2 15 -13 21 -13 6 -18 16 -14 27 4 11 2 14 -8 11 -8 -3 -13 -12 -11
-22 2 -9 -2 -16 -8 -16 -5 0 -9 3 -9 8 3 20 -3 32 -16 32 -14 0 -13 -3 1 -25z"/>
<path d="M2671 3311 c-10 -7 -7 -9 12 -8 14 1 23 5 20 10 -6 9 -15 9 -32 -2z"/>
<path d="M2635 3249 c-4 -6 -5 -12 -2 -15 2 -3 7 2 10 11 7 17 1 20 -8 4z"/>
<path d="M3395 2770 c3 -5 8 -10 11 -10 2 0 4 5 4 10 0 6 -5 10 -11 10 -5 0
-7 -4 -4 -10z"/>
<path d="M2675 2760 c-3 -5 -1 -10 4 -10 6 0 11 5 11 10 0 6 -2 10 -4 10 -3 0
-8 -4 -11 -10z"/>
<path d="M3464 2747 c-3 -9 -14 -14 -24 -12 -25 5 -42 -16 -28 -35 8 -13 9
-12 5 2 -8 23 3 30 19 13 16 -16 19 -29 4 -20 -5 3 -10 3 -10 -2 0 -4 13 -15
29 -24 22 -13 32 -14 41 -5 9 8 10 4 6 -19 -4 -16 -3 -23 0 -15 4 8 13 19 21
23 10 6 11 13 1 30 -6 12 -10 23 -9 25 1 2 -9 15 -23 29 -21 21 -27 23 -32 10z
m21 -25 c-2 -3 0 -13 6 -24 14 -26 3 -40 -21 -26 -10 7 -16 16 -13 20 2 5 0
15 -6 21 -8 10 -4 13 14 13 13 0 22 -2 20 -4z m31 -19 c-3 -3 0 -15 6 -27 8
-16 8 -18 -1 -10 -15 14 -24 57 -10 48 6 -3 8 -8 5 -11z"/>
<path d="M3295 2740 c-3 -5 -1 -10 4 -10 6 0 11 5 11 10 0 6 -2 10 -4 10 -3 0
-8 -4 -11 -10z"/>
<path d="M3318 2728 c-7 -17 15 -19 29 -3 4 4 3 5 -4 2 -6 -4 -13 -2 -15 5 -3
8 -6 6 -10 -4z"/>
<path d="M3342 2684 c10 -10 20 -16 22 -13 3 3 -5 11 -17 18 -21 13 -21 12 -5
-5z"/>
<path d="M3386 2683 c-6 -14 -5 -15 5 -6 7 7 10 15 7 18 -3 3 -9 -2 -12 -12z"/>
<path d="M2650 2681 c0 -6 4 -13 10 -16 6 -3 7 1 4 9 -7 18 -14 21 -14 7z"/>
<path d="M3440 2653 c13 -28 27 -37 27 -18 0 8 -3 13 -5 10 -3 -3 -11 3 -19
13 -13 15 -13 15 -3 -5z"/>
<path d="M2675 2650 c-4 -6 -11 -8 -16 -5 -5 4 -9 1 -9 -4 0 -15 11 -13 34 4
11 8 15 15 9 15 -7 0 -15 -5 -18 -10z"/>
<path d="M2749 2623 c-1 -5 -1 -12 0 -17 1 -4 -4 -14 -10 -22 -8 -10 -8 -14
-1 -14 6 0 16 9 22 20 8 14 8 20 0 20 -6 0 -8 5 -5 10 3 6 4 10 1 10 -3 0 -7
-3 -7 -7z"/>
<path d="M3411 2627 c2 -1 13 -9 24 -17 19 -14 19 -14 6 3 -7 9 -18 17 -24 17
-6 0 -8 -1 -6 -3z"/>
<path d="M3476 2613 c-6 -14 -5 -15 5 -6 7 7 10 15 7 18 -3 3 -9 -2 -12 -12z"/>
<path d="M3531 2604 c0 -11 3 -14 6 -6 3 7 2 16 -1 19 -3 4 -6 -2 -5 -13z"/>
<path d="M2637 2599 c7 -7 15 -10 18 -7 3 3 -2 9 -12 12 -14 6 -15 5 -6 -5z"/>
<path d="M2570 2580 c0 -5 5 -10 11 -10 5 0 7 5 4 10 -3 6 -8 10 -11 10 -2 0
-4 -4 -4 -10z"/>
<path d="M2610 2586 c0 -2 7 -7 16 -10 8 -3 12 -2 9 4 -6 10 -25 14 -25 6z"/>
<path d="M3558 2583 c7 -3 16 -2 19 1 4 3 -2 6 -13 5 -11 0 -14 -3 -6 -6z"/>
<path d="M3593 2560 c-1 -11 2 -22 8 -25 5 -4 6 2 2 11 -5 13 -3 15 8 9 12 -8
12 -6 0 8 -17 21 -16 21 -18 -3z"/>
<path d="M2556 2542 c-3 -5 1 -9 9 -9 8 0 12 4 9 9 -3 4 -7 8 -9 8 -2 0 -6 -4
-9 -8z"/>
<path d="M2694 2534 c-18 -14 -18 -15 4 -4 12 6 22 13 22 15 0 8 -5 6 -26 -11z"/>
<path d="M2665 2480 c-4 -6 -11 -8 -16 -4 -5 3 -9 2 -8 -3 1 -4 0 -10 -1 -13
-7 -20 -7 -41 2 -47 6 -3 8 -1 5 4 -4 6 0 14 9 17 8 3 12 11 9 16 -4 6 -1 17
5 25 7 8 10 15 7 15 -3 0 -9 -5 -12 -10z"/>
<path d="M2557 2433 c5 -12 3 -14 -8 -8 -12 8 -12 6 0 -8 18 -22 34 -11 21 14
-13 23 -22 25 -13 2z"/>
<path d="M3372 3590 c-6 -11 -18 -17 -26 -14 -8 3 -17 1 -21 -5 -3 -6 1 -14 9
-17 20 -8 11 -24 -13 -24 -17 0 -20 -12 -12 -52 0 -4 19 12 40 35 25 27 36 46
30 53 -5 6 -4 15 3 22 6 6 10 14 7 16 -3 3 -10 -4 -17 -14z m3 -31 c2 -3 -12
-21 -33 -40 -32 -30 -33 -30 -10 -3 21 22 25 33 17 41 -9 9 -7 11 4 9 9 -1 19
-4 22 -7z"/>
<path d="M3255 3417 c-15 -12 -16 -15 -4 -22 8 -5 11 -5 7 0 -4 4 0 14 10 21
23 18 11 18 -13 1z"/>
<path d="M3241 3366 c-8 -10 -9 -16 -1 -21 5 -3 10 -5 11 -3 4 18 7 38 4 38
-1 0 -8 -6 -14 -14z"/>
<path d="M4027 843 c-4 -3 -7 -11 -7 -17 0 -6 5 -5 12 2 6 6 9 14 7 17 -3 3
-9 2 -12 -2z"/>
<path d="M1550 5271 c0 -8 -7 -10 -20 -6 -11 3 -25 3 -32 -1 -7 -5 -20 -9 -28
-9 -8 -1 -25 -2 -37 -3 -13 -1 -23 -6 -23 -11 0 -6 9 -9 20 -8 11 1 20 6 20
11 0 5 3 6 6 3 4 -4 2 -12 -4 -20 -7 -8 -7 -18 -2 -27 6 -8 10 -12 11 -7 1 4
3 12 4 17 1 6 3 18 4 28 1 15 3 15 11 2 8 -12 10 -12 10 -1 0 8 3 11 7 7 5 -4
-1 -14 -11 -22 -11 -8 -15 -14 -9 -14 18 0 22 -26 8 -53 -12 -23 -11 -24 11
-24 20 0 22 2 13 14 -9 10 -9 17 -1 25 7 7 8 17 2 28 -9 17 4 49 16 37 4 -4
14 2 22 14 8 11 11 23 8 26 -3 4 -6 1 -6 -6z"/>
<path d="M1743 5237 c-29 -31 -38 -50 -24 -46 7 3 12 8 11 12 0 5 9 16 22 27
13 10 20 21 17 24 -3 3 -15 -4 -26 -17z"/>
<path d="M1390 5243 c0 -6 -6 -10 -12 -10 -23 2 -88 -15 -88 -22 0 -4 -7 -8
-15 -9 -8 -1 -22 -3 -30 -4 -16 -1 -21 -28 -5 -28 6 0 10 5 10 10 0 6 5 10 10
10 6 0 9 -4 8 -9 -2 -5 1 -9 5 -9 5 -1 15 -9 24 -19 8 -10 12 -12 8 -6 -12 25
-14 54 -3 47 7 -4 8 -3 4 4 -4 7 -2 12 3 12 15 0 14 -13 -1 -28 -18 -18 22
-11 53 9 18 12 19 16 6 16 -9 0 -17 -4 -17 -9 0 -4 -4 -8 -10 -8 -17 0 -11 14
11 28 14 9 19 10 14 2 -6 -9 -2 -9 14 -1 16 9 20 9 15 -2 -3 -9 6 -19 25 -27
17 -7 31 -16 31 -21 0 -5 9 -4 19 3 11 7 17 16 14 20 -2 5 -10 5 -17 -1 -16
-13 -34 0 -30 22 1 10 -2 14 -8 11 -6 -4 -17 1 -25 11 -7 11 -13 14 -13 8z
m-105 -52 c3 -5 2 -12 -3 -15 -5 -3 -9 1 -9 9 0 17 3 19 12 6z"/>
<path d="M1549 5243 c-7 -39 -5 -53 8 -53 8 0 11 5 7 11 -5 8 -1 8 13 0 11 -6
23 -7 27 -4 3 3 6 1 6 -6 0 -8 -7 -10 -22 -5 -20 6 -21 5 -9 -9 7 -9 17 -15
21 -12 5 3 11 1 15 -5 3 -5 11 -10 17 -10 7 0 6 5 -2 15 -6 8 -9 19 -5 25 9
15 28 1 21 -16 -6 -16 10 -19 19 -4 7 12 -15 44 -34 48 -7 1 -19 -2 -27 -9
-11 -9 -16 -6 -25 15 -12 25 -28 35 -30 19z"/>
<path d="M1515 5221 c-3 -6 -2 -11 4 -11 11 0 9 -19 -3 -38 -5 -8 -4 -18 2
-24 6 -6 8 -17 5 -24 -4 -12 -8 -12 -21 -2 -12 10 -14 10 -8 1 8 -14 7 -14
-39 -17 -16 0 -33 -5 -37 -11 -5 -6 -8 -5 -8 3 0 9 -6 8 -25 -4 -13 -8 -28
-13 -34 -10 -5 3 -12 0 -14 -6 -4 -10 -6 -10 -6 0 -1 6 -5 12 -11 12 -5 0 -9
-5 -7 -11 1 -6 -5 -14 -13 -16 -12 -4 -12 -3 -1 5 9 7 10 12 2 16 -6 4 -11 2
-11 -4 0 -6 -5 -8 -11 -4 -8 4 -7 9 2 16 11 7 10 8 -4 4 -13 -4 -16 -2 -11 7
5 7 0 5 -11 -3 -17 -13 -18 -13 -10 0 8 13 7 13 -11 0 -18 -14 -18 -14 -4 4
13 18 13 19 0 11 -12 -7 -13 -6 -3 7 7 8 10 18 6 21 -3 4 -2 7 4 7 6 0 14 -7
17 -16 5 -13 9 -14 21 -4 12 10 16 9 21 -5 6 -13 9 -14 16 -3 7 10 8 9 4 -4
-6 -21 5 -23 22 -6 18 18 15 25 -10 24 -13 -1 -35 6 -49 16 -14 9 -29 15 -33
11 -3 -3 -14 1 -24 10 -17 15 -20 15 -43 -6 -14 -12 -31 -23 -39 -25 -8 -2
-18 -9 -22 -15 -4 -7 -8 -9 -8 -4 0 9 -48 -21 -70 -43 -8 -9 -34 -31 -58 -49
-29 -22 -39 -36 -32 -41 9 -5 9 -9 1 -14 -6 -4 -11 -4 -11 0 0 4 -11 -3 -24
-15 -15 -14 -22 -29 -19 -39 5 -11 3 -13 -7 -7 -9 5 -11 4 -6 -3 4 -7 3 -12
-1 -12 -11 0 -43 -54 -42 -72 0 -7 5 -1 11 15 5 15 14 25 19 21 5 -3 2 -18 -6
-34 -20 -39 -19 -43 8 -35 20 7 21 6 6 -9 -19 -21 -50 -11 -42 12 4 9 3 14 -1
11 -4 -4 -8 -16 -11 -28 -2 -11 -7 -25 -10 -31 -6 -10 25 -64 33 -56 3 3 -1
12 -8 21 -7 8 -8 15 -2 15 5 0 15 -7 22 -15 11 -13 9 -20 -9 -38 -11 -13 -21
-27 -21 -31 0 -5 -10 -17 -22 -27 -11 -11 -17 -19 -13 -19 5 0 17 7 27 16 16
16 18 15 27 -7 6 -14 10 -17 10 -8 1 8 -4 20 -10 26 -9 9 -8 18 5 37 21 34 32
33 55 -5 18 -29 19 -30 24 -7 4 12 3 26 -2 31 -13 13 0 49 15 43 9 -3 11 3 8
20 -3 17 0 24 11 24 8 0 15 5 15 10 0 7 -6 7 -19 1 -14 -8 -20 -7 -24 3 -6 15
1 26 15 26 5 0 6 -6 2 -12 -5 -9 -2 -9 9 1 9 7 17 10 17 6 0 -3 16 14 36 40
28 37 33 49 23 61 -14 17 2 19 19 2 9 -9 12 -8 12 6 0 12 5 16 15 12 8 -3 14
0 12 6 -1 7 3 12 8 13 6 0 35 17 65 36 30 20 63 38 73 42 9 3 17 11 17 17 0 6
4 9 9 6 4 -3 32 3 62 13 29 11 57 17 61 15 5 -3 8 -1 8 5 0 5 8 8 17 7 10 -2
36 1 58 7 22 5 52 10 68 10 34 1 34 10 0 35 -19 14 -23 21 -13 27 9 5 11 4 6
-3 -4 -7 -2 -12 3 -12 6 0 11 4 11 10 0 5 16 0 36 -12 22 -13 35 -17 33 -9 -3
7 -7 11 -11 9 -3 -2 -15 5 -26 15 -12 11 -26 16 -31 12 -6 -3 -11 -3 -12 2 -4
42 -13 60 -24 44z m-289 -74 c-1 -7 -4 -16 -7 -22 -3 -5 -4 -16 -3 -22 1 -7 2
-19 3 -25 1 -8 4 -9 9 -3 12 17 29 15 47 -5 11 -12 13 -20 7 -20 -7 0 -12 6
-12 13 -1 6 -7 1 -15 -13 -8 -14 -14 -19 -15 -10 0 10 -5 7 -16 -8 -8 -12 -21
-22 -28 -22 -8 0 -19 -6 -26 -14 -6 -8 -19 -12 -27 -9 -10 4 -14 2 -10 -4 4
-6 0 -16 -8 -23 -8 -7 -15 -9 -15 -5 0 4 -7 2 -15 -5 -8 -7 -15 -9 -15 -4 0 5
-4 3 -9 -5 -11 -17 -59 -22 -57 -6 3 17 17 35 28 35 6 0 5 -7 -3 -17 -10 -11
-10 -14 -1 -9 7 4 12 2 12 -6 0 -10 3 -9 10 2 5 9 5 19 0 26 -6 6 -7 14 -3 18
4 4 13 -4 21 -16 7 -13 11 -15 8 -6 -3 11 -1 15 8 12 17 -6 41 22 26 31 -5 3
-10 11 -10 17 0 6 9 3 19 -6 20 -18 28 -13 27 19 -1 11 4 23 9 27 6 5 5 8 -2
8 -7 0 -13 5 -13 11 0 5 4 8 9 4 5 -3 13 0 17 6 5 8 3 9 -6 4 -9 -6 -11 -4 -5
5 6 9 4 11 -5 5 -8 -5 -11 -4 -7 2 3 5 0 10 -8 10 -10 0 -12 -4 -5 -12 12 -15
-15 -29 -32 -18 -7 4 -8 1 -3 -7 6 -9 4 -11 -5 -5 -9 6 -11 4 -5 -5 6 -9 4
-11 -4 -5 -8 4 -19 -1 -28 -15 -12 -17 -17 -19 -24 -9 -7 11 -9 11 -9 1 0 -8
-5 -10 -12 -6 -8 4 -10 3 -5 -2 5 -5 13 -10 18 -10 22 -3 23 -5 9 -14 -8 -5
-11 -12 -7 -17 5 -4 12 -1 17 7 6 9 10 10 10 3 0 -17 -18 -25 -34 -16 -14 8
-16 12 -16 34 0 5 -5 7 -11 3 -8 -5 -8 -9 1 -14 9 -5 9 -9 1 -14 -6 -4 -11 -2
-11 3 0 6 -5 11 -11 11 -8 0 -7 -5 1 -15 11 -13 10 -14 -4 -9 -9 3 -16 9 -16
13 0 8 140 116 148 114 4 -1 14 5 23 13 9 8 18 12 21 9 2 -3 15 6 28 20 17 18
27 22 36 14 7 -5 11 -15 10 -22z m-80 -108 c1 -36 -1 -36 -22 -3 -15 22 -15
27 -3 34 18 12 24 5 25 -31z m-36 0 c0 -5 -5 -9 -12 -9 -6 0 -4 -8 6 -19 15
-16 15 -19 2 -24 -9 -4 -24 3 -36 15 -18 20 -19 23 -4 39 15 17 44 16 44 -2z
m-87 -63 c7 3 -1 -6 -18 -20 -31 -27 -55 -34 -55 -15 0 5 4 8 9 4 5 -3 12 -1
15 4 4 5 1 13 -5 17 -7 4 -9 3 -5 -4 4 -7 -1 -10 -13 -7 -14 3 -18 -1 -14 -11
4 -10 0 -12 -13 -8 -18 6 -18 6 0 -8 17 -14 17 -15 2 -21 -10 -4 -15 -11 -11
-16 3 -5 1 -12 -5 -16 -5 -3 -10 -1 -10 5 0 6 -5 8 -11 4 -8 -4 -7 -9 2 -15 7
-4 17 -5 21 -3 10 6 10 1 2 -21 -5 -12 -9 -13 -14 -5 -5 8 -9 7 -13 -5 -4 -9
-3 -14 2 -11 5 3 11 0 14 -8 4 -9 -2 -13 -18 -12 -21 1 -22 3 -9 27 9 18 10
29 3 36 -7 7 -2 17 16 31 16 13 22 23 15 27 -8 5 -6 13 6 26 9 10 20 16 25 14
4 -3 10 -1 14 4 3 6 12 8 19 5 8 -3 18 0 22 7 6 10 9 10 12 1 2 -7 9 -10 15
-6z m-21 -44 c-9 -6 -5 -12 13 -20 29 -14 26 -27 -20 -76 -23 -25 -28 -27 -41
-14 -15 14 -10 48 7 48 12 0 11 -14 -2 -27 -8 -8 -8 -13 0 -18 6 -3 11 -3 10
2 -3 20 2 27 12 13 8 -12 9 -10 4 7 -5 19 -3 22 12 17 15 -5 16 -4 3 6 -13 10
-13 11 2 7 11 -4 15 0 14 11 -3 19 -31 24 -31 5 0 -6 -3 -15 -7 -19 -5 -4 -8
-2 -8 6 0 9 -3 10 -13 1 -8 -6 -16 -8 -19 -6 -3 3 -4 -10 -2 -30 1 -19 -2 -37
-7 -40 -5 -4 -2 -19 6 -36 16 -31 16 -31 -30 -33 -11 -1 -19 -7 -18 -13 4 -18
-12 -16 -27 2 -7 9 -19 14 -27 11 -7 -3 -13 -1 -13 4 0 6 5 10 11 10 5 0 7 5
4 10 -3 6 -2 10 4 10 5 0 13 -9 16 -20 6 -18 8 -19 27 -6 11 8 27 12 34 9 8
-3 14 -1 14 4 0 12 -38 14 -45 2 -4 -5 -11 -9 -17 -9 -6 0 -3 9 7 20 10 12 24
19 30 16 6 -2 12 9 13 28 5 77 6 84 19 79 8 -3 11 2 8 16 -3 18 -1 20 15 11
22 -12 30 -13 29 -2 -3 15 1 22 14 22 9 0 9 -2 -1 -8z m-90 -225 c-1 -8 2 -18
8 -22 5 -3 10 -11 10 -17 0 -6 -9 -3 -19 6 -20 18 -25 59 -6 53 5 -2 9 -11 7
-20z"/>
<path d="M1181 5146 c-19 -20 -20 -24 -6 -36 8 -7 12 -17 8 -24 -7 -11 -8 -15
-15 -51 -2 -11 -8 -27 -12 -35 -5 -8 2 -5 16 8 13 12 27 20 30 16 4 -3 11 4
18 15 6 12 15 19 19 16 5 -3 12 2 15 10 4 13 2 13 -14 5 -15 -8 -21 -7 -28 7
-7 16 -9 38 -2 46 1 1 3 10 5 19 5 28 -10 30 -34 4z m24 -3 c-2 -10 -4 -20 -5
-23 -1 -3 -2 -9 -1 -14 1 -5 -5 -3 -14 4 -14 12 -14 15 1 31 21 23 23 23 19 2z
m-8 -60 c-4 -3 0 -11 8 -17 10 -8 12 -16 5 -26 -8 -13 -10 -13 -10 -1 0 11 -4
9 -16 -5 -15 -18 -15 -18 -4 3 5 12 10 26 9 30 -2 14 1 23 8 23 3 0 3 -3 0 -7z"/>
<path d="M1068 5078 l-33 -29 39 28 c22 15 41 27 44 25 2 -2 6 -2 8 1 2 2 -3
4 -11 4 -8 0 -29 -13 -47 -29z"/>
<path d="M1126 5062 c-2 -4 -1 -14 4 -22 7 -11 9 -9 7 8 -1 24 -3 26 -11 14z"/>
<path d="M1076 5034 c-3 -8 1 -22 9 -30 8 -9 15 -11 15 -5 0 5 -4 12 -10 16
-5 3 -7 12 -3 20 3 8 3 15 0 15 -3 0 -8 -7 -11 -16z"/>
<path d="M4533 5217 c-3 -4 -2 -11 1 -14 3 -4 6 -1 6 6 0 7 5 9 11 5 7 -4 2
-15 -15 -29 -14 -12 -26 -26 -26 -30 0 -5 11 2 25 15 l25 23 25 -23 c14 -13
25 -20 25 -15 0 4 -10 16 -21 26 -12 10 -19 24 -16 32 5 14 -31 18 -40 4z"/>
<path d="M4619 5220 c-8 -6 -8 -9 0 -14 6 -4 11 -2 11 4 0 6 4 9 9 5 5 -3 12
-2 15 3 6 10 -19 11 -35 2z"/>
<path d="M4445 5209 c-5 -7 -4 -10 3 -5 5 3 12 0 15 -6 4 -10 7 -11 18 0 15
14 29 16 29 4 0 -5 -10 -14 -22 -20 -17 -8 -18 -11 -7 -11 24 -1 45 27 31 41
-8 8 -15 8 -25 0 -9 -8 -17 -8 -24 -1 -8 8 -13 7 -18 -2z"/>
<path d="M4421 5197 c0 -10 5 -20 13 -23 21 -8 8 -34 -12 -27 -14 5 -15 4 -4
-8 11 -12 15 -11 26 3 7 10 16 14 21 10 4 -4 2 3 -6 15 -7 12 -16 20 -20 17
-4 -2 -10 4 -12 13 -4 17 -5 17 -6 0z"/>
<path d="M1374 5185 c-3 -8 -10 -12 -15 -9 -5 3 -12 -2 -15 -11 -5 -12 -9 -13
-14 -5 -5 9 -9 9 -14 1 -4 -6 -4 -11 1 -12 4 0 17 -2 27 -4 11 -2 28 1 39 7
15 7 18 7 12 -2 -5 -9 -2 -10 13 -6 11 4 23 2 27 -3 4 -7 -6 -9 -25 -7 -22 2
-40 -3 -57 -18 -24 -21 -24 -22 -4 -23 12 -1 21 3 21 8 0 6 4 8 9 4 5 -3 12
-1 15 4 4 5 18 8 32 5 16 -3 23 -1 19 6 -9 14 8 13 25 -2 12 -11 12 -10 2 4
-9 11 -10 18 -2 23 5 3 10 11 10 17 0 7 -5 6 -14 -1 -10 -8 -16 -9 -21 -1 -3
5 -20 17 -36 25 -26 14 -30 14 -35 0z m46 -21 c0 -2 -9 0 -20 6 -11 6 -20 13
-20 16 0 2 9 0 20 -6 11 -6 20 -13 20 -16z m-46 -6 c-3 -4 -9 -8 -15 -8 -5 0
-9 4 -9 8 0 5 7 9 15 9 8 0 12 -4 9 -9z"/>
<path d="M4387 5189 c7 -7 15 -10 18 -7 3 3 -2 9 -12 12 -14 6 -15 5 -6 -5z"/>
<path d="M4335 5180 c3 -5 8 -10 11 -10 2 0 4 5 4 10 0 6 -5 10 -11 10 -5 0
-7 -4 -4 -10z"/>
<path d="M1650 5150 c-32 -26 -36 -27 -62 -14 -37 19 -44 18 -23 -6 13 -14 29
-19 67 -17 43 1 47 3 32 14 -10 7 -13 13 -7 13 7 0 19 -7 28 -16 9 -9 19 -13
23 -9 4 4 -3 15 -16 25 -15 12 -18 20 -10 23 7 2 11 7 8 10 -3 3 -21 -7 -40
-23z"/>
<path d="M4355 5160 c-13 -6 -15 -9 -5 -9 8 0 22 4 30 9 18 12 2 12 -25 0z"/>
<path d="M4543 5155 c-18 -20 -16 -30 2 -15 12 10 18 10 30 0 19 -16 20 -3 1
16 -17 17 -18 17 -33 -1z"/>
<path d="M4486 5148 c3 -10 9 -18 14 -18 4 0 11 -10 17 -22 9 -21 10 -21 17
-3 4 11 4 16 0 13 -3 -4 -17 5 -30 20 -15 17 -22 20 -18 10z"/>
<path d="M4377 5144 c-3 -3 -3 -13 0 -22 5 -14 3 -15 -8 -4 -7 6 -17 12 -22
12 -5 0 2 -9 16 -21 28 -21 72 -35 62 -18 -4 5 -2 9 4 9 5 0 12 -6 15 -12 3
-7 4 -5 3 4 -1 9 7 24 18 33 24 20 1 9 -36 -16 -14 -10 -29 -15 -35 -11 -12 9
-12 35 1 44 6 5 6 8 -1 8 -6 0 -13 -3 -17 -6z"/>
<path d="M1277 5123 c-3 -5 4 -15 16 -23 21 -12 21 -12 7 6 -8 10 -15 20 -16
22 -1 2 -4 -1 -7 -5z"/>
<path d="M4473 5112 c-9 -6 -7 -11 7 -20 12 -7 21 -8 25 -2 4 6 3 10 -2 9 -20
-3 -27 2 -13 11 8 5 11 10 5 10 -5 0 -15 -4 -22 -8z"/>
<path d="M4351 5080 c-9 -5 -4 -7 13 -7 29 0 32 2 13 10 -8 3 -20 2 -26 -3z"/>
<path d="M5131 4757 c-8 -11 -6 -18 9 -32 15 -14 20 -15 20 -4 0 12 2 11 10
-1 5 -8 12 -11 17 -7 9 9 -17 28 -29 21 -7 -5 -12 10 -9 29 2 11 -5 9 -18 -6z"/>
<path d="M5061 4733 c7 -12 15 -20 18 -17 3 2 -3 12 -13 22 -17 16 -18 16 -5
-5z"/>
<path d="M5090 4723 c0 -6 5 -15 11 -19 8 -5 7 -9 -1 -14 -21 -13 -21 -59 -1
-70 13 -7 17 -20 16 -50 -1 -22 2 -43 8 -47 5 -3 5 -8 -2 -13 -7 -3 2 -7 19
-7 24 0 28 3 16 9 -9 5 -13 14 -10 20 5 7 2 9 -8 6 -8 -4 -15 0 -15 8 0 7 4
11 9 8 12 -8 39 16 32 28 -3 5 -11 2 -18 -7 -12 -17 -13 -13 -18 42 -1 7 -5
10 -9 8 -3 -3 -13 3 -20 13 -12 15 -12 16 2 5 15 -12 29 -8 29 9 0 4 -6 7 -12
6 -7 -2 -11 4 -9 12 2 8 4 20 4 27 0 7 5 9 10 6 6 -4 7 -1 2 7 -5 9 -4 11 4 6
9 -6 9 -11 0 -22 -7 -9 -8 -18 -3 -22 5 -4 8 -5 7 -3 -2 2 2 10 9 18 9 11 7
18 -7 31 -14 14 -18 14 -22 3 -5 -11 -7 -11 -14 0 -6 9 -9 10 -9 2z"/>
<path d="M802 4710 c2 -8 8 -18 13 -22 7 -5 7 -10 0 -15 -5 -5 -11 -15 -13
-23 -1 -10 2 -9 13 4 8 11 15 23 15 26 0 3 -7 15 -15 26 -11 13 -14 14 -13 4z"/>
<path d="M5155 4693 c-5 -10 -7 -22 -6 -27 1 -4 -4 -14 -10 -22 -6 -8 -8 -14
-4 -14 4 0 13 7 20 16 10 15 12 14 10 -7 -1 -16 -7 -23 -18 -21 -12 2 -15 -2
-11 -13 4 -9 9 -14 12 -11 2 3 12 1 21 -4 10 -5 23 -5 30 -1 10 6 9 10 -4 14
-10 5 -14 3 -9 -5 5 -7 3 -8 -5 -4 -13 9 -6 21 11 21 17 0 18 33 1 39 -12 5
-13 9 -4 20 8 10 9 16 1 21 -5 3 -10 3 -10 -2 0 -4 -4 -2 -9 5 -6 11 -10 10
-16 -5z m30 -12 c-9 -8 -36 -10 -30 -2 2 4 11 8 20 8 8 0 13 -3 10 -6z m8 -45
c4 -10 1 -13 -9 -9 -7 3 -14 9 -14 14 0 14 17 10 23 -5z"/>
<path d="M863 4654 c-3 -9 -2 -19 3 -23 6 -3 10 -17 9 -30 0 -13 6 -25 13 -27
7 -1 8 0 2 3 -5 2 -10 9 -10 14 0 6 5 7 10 4 6 -3 10 -1 10 4 0 6 -5 11 -11
11 -5 0 -8 4 -4 9 3 5 1 12 -5 16 -12 7 -13 25 -2 25 13 0 35 -50 37 -82 1
-16 -2 -28 -7 -28 -4 0 -8 -5 -8 -11 0 -5 5 -7 10 -4 6 3 10 1 10 -5 0 -6 -7
-13 -15 -16 -8 -4 -15 -10 -15 -15 0 -5 9 -4 20 3 14 9 19 21 16 38 -2 14 2
31 8 39 8 11 8 13 -1 7 -7 -4 -13 -3 -13 1 0 5 6 15 13 22 9 10 9 12 0 7 -7
-4 -18 5 -28 24 -17 33 -32 38 -42 14z"/>
<path d="M831 4599 c-1 -16 46 -55 55 -46 2 2 -7 10 -21 17 -13 7 -26 20 -28
29 -4 14 -5 14 -6 0z"/>
<path d="M799 4573 c-8 -10 -9 -14 -2 -10 6 4 14 3 18 -3 3 -5 2 -10 -3 -10
-5 0 -9 -7 -9 -16 0 -14 2 -14 14 2 16 22 17 34 2 34 -5 0 -7 5 -4 10 10 16
-1 11 -16 -7z"/>
<path d="M5169 4560 c-17 -14 -20 -19 -9 -20 13 0 13 -1 0 -11 -13 -9 -13 -10
0 -6 8 2 14 12 14 21 -1 10 1 15 4 12 3 -3 10 -1 17 4 8 7 12 5 12 -5 0 -8 -5
-11 -10 -8 -6 3 -7 1 -3 -5 4 -6 13 -9 21 -6 11 5 12 11 4 25 -12 24 -21 24
-50 -1z"/>
<path d="M834 4536 c-3 -8 6 -25 20 -39 14 -15 26 -22 26 -16 0 5 -9 17 -20
26 -20 18 -28 39 -10 28 6 -3 10 -1 10 4 0 16 -20 13 -26 -3z"/>
<path d="M870 4530 c0 -5 5 -10 10 -10 6 0 10 5 10 10 0 6 -4 10 -10 10 -5 0
-10 -4 -10 -10z"/>
<path d="M810 4501 c0 -6 5 -11 10 -11 6 0 10 -5 10 -11 0 -6 -7 -9 -14 -6
-10 4 -13 1 -9 -9 5 -13 8 -13 24 2 11 10 18 18 17 18 -2 1 -11 8 -20 15 -12
9 -18 10 -18 2z"/>
<path d="M930 4491 c0 -7 -4 -9 -10 -6 -6 4 -7 -1 -3 -11 6 -15 7 -15 15 1 6
9 7 19 4 22 -3 4 -6 1 -6 -6z"/>
<path d="M5197 4486 c-9 -9 -19 -25 -22 -36 -4 -11 -11 -17 -17 -14 -7 4 -6 9
2 14 8 5 9 13 3 24 -9 16 -11 16 -22 2 -9 -10 -10 -16 -3 -16 6 0 9 -7 6 -15
-4 -8 1 -17 10 -21 17 -7 23 -44 6 -44 -5 0 -6 8 -3 18 6 15 5 16 -11 2 -12
-9 -14 -16 -7 -18 8 -3 9 -8 1 -17 -8 -10 -3 -12 24 -11 19 0 34 3 33 6 -1 3
7 18 17 33 10 15 16 30 13 33 -3 4 -15 -8 -26 -26 l-19 -32 3 38 c2 21 9 40
14 42 6 2 11 8 11 13 0 6 -5 7 -12 3 -7 -4 -8 -3 -4 5 4 6 12 8 18 5 7 -4 8
-2 4 4 -4 7 -2 12 4 12 7 0 9 -8 5 -20 -5 -16 -3 -19 11 -13 14 5 16 2 11 -19
-4 -16 -2 -30 7 -37 11 -9 13 -3 12 29 -1 22 -5 40 -9 40 -5 0 -5 5 -2 10 3 6
2 10 -4 10 -5 0 -16 3 -24 6 -8 3 -21 -2 -30 -10z"/>
<path d="M890 4471 c0 -5 5 -13 10 -16 6 -3 10 -2 10 4 0 5 -4 13 -10 16 -5 3
-10 2 -10 -4z"/>
<path d="M854 4456 c5 -14 2 -17 -9 -12 -9 3 -13 2 -10 -4 3 -6 0 -10 -7 -10
-8 0 -6 -5 5 -11 9 -6 15 -14 12 -20 -4 -5 -1 -9 4 -9 14 0 14 17 0 25 -6 5
-4 12 8 20 15 12 16 16 4 27 -12 11 -13 10 -7 -6z"/>
<path d="M876 4435 c-9 -26 -7 -32 5 -12 6 10 9 21 6 23 -2 3 -7 -2 -11 -11z"/>
<path d="M930 4438 c0 -6 -3 -8 -7 -5 -10 10 -33 -13 -33 -34 0 -10 5 -21 10
-24 7 -4 8 3 4 20 -3 14 -2 25 2 24 14 -3 44 12 44 22 0 5 -4 9 -10 9 -5 0
-10 -5 -10 -12z"/>
<path d="M5200 4435 c-8 -9 -8 -15 -2 -15 12 0 26 19 19 26 -2 2 -10 -2 -17
-11z"/>
<path d="M925 4399 c-11 -16 -1 -19 13 -3 7 8 8 14 3 14 -5 0 -13 -5 -16 -11z"/>
<path d="M5230 4396 c0 -9 5 -16 10 -16 6 0 10 4 10 9 0 6 -4 13 -10 16 -5 3
-10 -1 -10 -9z"/>
<path d="M873 4371 c0 -11 5 -18 9 -15 4 3 5 11 1 19 -7 21 -12 19 -10 -4z"/>
<path d="M838 4363 c7 -3 16 -2 19 1 4 3 -2 6 -13 5 -11 0 -14 -3 -6 -6z"/>
<path d="M930 4362 c0 -5 7 -9 15 -9 8 0 12 4 9 9 -3 4 -9 8 -15 8 -5 0 -9 -4
-9 -8z"/>
<path d="M895 4351 c-3 -5 0 -13 6 -17 7 -4 9 -3 5 4 -3 5 0 13 6 15 9 4 10 6
1 6 -6 1 -14 -3 -18 -8z"/>
<path d="M836 4339 c3 -5 9 -7 14 -4 4 3 11 0 13 -5 3 -6 4 -5 3 1 -1 7 -10
13 -19 15 -9 1 -15 -2 -11 -7z"/>
<path d="M755 1694 c2 -34 20 -58 36 -48 4 2 11 -1 15 -7 5 -8 3 -9 -6 -4 -8
5 -11 3 -8 -5 2 -7 13 -15 23 -16 11 -2 21 -7 23 -12 2 -6 14 1 28 15 19 19
23 28 14 37 -8 8 -11 7 -8 -3 2 -10 -7 -16 -25 -17 -30 -3 -64 34 -54 60 3 7
0 19 -6 25 -21 21 -33 11 -32 -25z"/>
<path d="M907 1724 c-8 -8 1 -24 12 -24 4 0 8 7 8 15 0 16 -9 20 -20 9z"/>
<path d="M5148 1713 c7 -3 16 -2 19 1 4 3 -2 6 -13 5 -11 0 -14 -3 -6 -6z"/>
<path d="M5113 1695 c0 -8 4 -12 9 -9 4 3 8 9 8 15 0 5 -4 9 -8 9 -5 0 -9 -7
-9 -15z"/>
<path d="M885 1690 c-3 -5 3 -27 15 -49 12 -24 16 -42 10 -46 -6 -3 -10 -11
-10 -16 0 -6 5 -7 12 -3 7 4 8 3 4 -4 -4 -6 -2 -21 5 -33 8 -16 8 -23 -1 -29
-9 -5 -9 -9 -1 -14 6 -4 13 -1 15 6 6 18 4 48 -3 48 -3 0 -6 22 -5 50 0 32 -4
51 -13 54 -7 3 -12 13 -12 23 1 17 2 17 6 1 5 -20 24 -25 21 -5 -5 23 -32 35
-43 17z"/>
<path d="M5135 1679 c-7 -11 0 -23 16 -25 5 -1 14 -2 19 -3 6 0 10 -6 10 -12
0 -6 -7 -9 -15 -5 -8 3 -21 -4 -30 -16 -15 -22 -15 -22 -30 -3 -8 11 -15 15
-15 9 0 -6 7 -18 16 -25 14 -11 18 -11 28 1 6 8 20 17 30 18 16 3 18 1 8 -11
-10 -11 -10 -16 0 -24 27 -21 42 -24 19 -4 -22 20 -20 26 4 21 6 -1 5 4 -2 11
-6 6 -9 17 -6 24 5 14 -30 38 -41 28 -3 -3 -6 -1 -6 5 0 5 6 13 13 15 9 4 9 6
0 6 -6 1 -15 -4 -18 -10z"/>
<path d="M5062 1654 c2 -16 7 -20 22 -16 15 4 17 7 6 10 -8 3 -18 10 -22 16
-4 6 -6 1 -6 -10z"/>
<path d="M5113 1652 c0 -12 5 -22 9 -22 11 0 10 12 -2 30 -7 12 -9 10 -7 -8z"/>
<path d="M765 1593 c2 -45 4 -48 33 -49 22 -1 29 2 25 12 -3 8 -10 11 -16 7
-6 -3 -7 -1 -3 5 4 6 13 9 21 6 8 -4 12 -10 9 -15 -3 -5 -1 -9 4 -9 5 0 14 11
20 25 7 15 17 22 26 19 18 -7 27 8 16 26 -6 10 -14 7 -33 -14 -23 -24 -26 -25
-41 -11 -9 9 -16 13 -16 8 0 -4 -10 -19 -21 -33 -16 -20 -18 -20 -10 -4 7 15
7 25 -2 34 -10 12 -9 12 6 1 12 -9 17 -10 17 -2 0 6 -7 14 -15 17 -8 4 -12 10
-9 15 3 5 1 9 -4 9 -6 0 -9 -21 -7 -47z"/>
<path d="M5071 1604 c0 -11 3 -14 6 -6 3 7 2 16 -1 19 -3 4 -6 -2 -5 -13z"/>
<path d="M865 1570 c-7 -22 -40 -44 -54 -35 -5 3 -16 2 -24 -1 -15 -5 -16 -26
-3 -74 4 -14 8 -36 10 -50 6 -45 18 -80 28 -80 5 0 6 -5 2 -11 -7 -11 24 -89
36 -89 3 0 15 7 26 16 18 15 18 15 -3 5 -16 -8 -24 -8 -29 1 -5 7 -3 8 6 3 10
-6 12 -4 7 9 -4 10 -7 21 -7 24 0 4 -4 1 -9 -6 -7 -11 -9 -10 -14 3 -4 9 -3
13 2 10 5 -3 12 -1 16 5 3 5 -2 10 -12 10 -14 0 -15 2 -5 9 11 7 11 9 -2 14
-10 4 -13 13 -9 23 4 12 3 15 -5 10 -7 -4 -12 -3 -12 3 0 5 9 13 20 16 11 3
20 11 20 16 0 11 -22 7 -32 -6 -7 -9 -13 17 -9 39 1 4 -4 14 -10 22 -8 10 -8
14 0 14 6 0 11 5 11 11 0 5 -4 8 -9 4 -5 -3 -13 0 -17 6 -5 8 -3 9 6 4 9 -5
10 -2 5 14 -4 13 -2 21 5 21 6 0 8 -5 5 -10 -4 -6 -1 -9 7 -8 8 2 12 -5 11
-19 -2 -13 3 -20 12 -19 19 3 32 16 15 16 -7 0 -10 3 -7 7 4 3 1 13 -6 21 -10
13 -9 14 1 8 7 -4 15 -1 18 8 3 9 10 16 16 16 5 0 7 -4 4 -9 -8 -12 21 -34 34
-26 6 4 5 16 -5 35 -20 38 -32 45 -40 20z m39 -36 c3 -8 2 -12 -4 -9 -6 3 -10
10 -10 16 0 14 7 11 14 -7z"/>
<path d="M5090 1586 c0 -6 10 -20 22 -33 12 -13 19 -26 15 -29 -4 -4 -16 4
-28 17 l-21 24 15 -25 c8 -15 25 -26 40 -27 26 -2 26 -2 7 20 -11 12 -26 31
-34 42 -9 11 -16 16 -16 11z"/>
<path d="M5135 1580 c-10 -16 3 -27 31 -27 17 0 22 2 13 7 -6 5 -18 6 -26 3
-9 -4 -11 0 -7 11 7 18 -1 22 -11 6z"/>
<path d="M5195 1540 c-4 -6 -16 -8 -28 -5 -21 5 -21 5 1 -6 12 -7 22 -15 22
-19 0 -5 8 -11 17 -14 15 -6 15 -5 -1 13 -13 14 -14 20 -4 24 7 2 10 7 7 11
-4 4 -10 2 -14 -4z"/>
<path d="M856 1523 c-3 -3 0 -15 5 -26 8 -15 8 -22 -2 -28 -7 -4 -17 -5 -21
-3 -4 3 -8 -1 -8 -8 0 -10 -2 -10 -9 1 -7 10 -9 7 -8 -12 1 -14 5 -23 10 -20
4 2 7 -1 7 -6 0 -6 3 -10 8 -10 4 1 14 1 22 0 12 -1 11 -5 -5 -19 -19 -16 -32
-57 -15 -47 7 5 24 -30 22 -45 -1 -13 20 -40 28 -35 5 3 11 1 15 -5 3 -5 -9
-19 -27 -30 -18 -11 -28 -20 -22 -20 5 0 16 -16 24 -35 8 -19 18 -35 22 -35 5
0 7 -4 4 -8 -3 -5 5 -20 17 -33 12 -13 22 -26 22 -30 0 -11 107 -130 112 -125
3 2 18 -10 34 -27 15 -18 29 -26 29 -18 0 8 8 4 21 -10 11 -13 18 -19 16 -14
-3 6 2 16 10 24 13 12 14 11 8 -8 -4 -13 -2 -21 5 -21 6 0 8 -6 4 -12 -4 -7
-4 -10 1 -6 4 4 14 3 22 -3 7 -6 13 -8 13 -4 0 4 6 3 13 -3 16 -14 59 21 61
50 0 12 6 23 12 25 9 3 11 -30 3 -47 -1 -3 -3 -11 -3 -19 -1 -8 -7 -16 -15
-19 -8 -3 -11 0 -7 7 10 15 1 14 -13 -3 -9 -11 -7 -13 11 -12 13 1 29 -2 36
-7 7 -6 12 -6 12 1 0 6 -6 13 -12 15 -8 3 -6 6 4 6 9 1 22 -7 28 -16 10 -17
10 -17 20 0 6 9 16 17 22 17 7 0 7 -5 -1 -14 -8 -10 -9 -16 -1 -21 10 -6 12
-5 14 17 0 7 12 18 26 25 17 9 20 13 8 13 -9 0 -19 -4 -23 -10 -3 -5 -12 -7
-19 -4 -8 3 -17 1 -21 -5 -3 -6 -11 -11 -17 -11 -6 0 -3 9 6 19 10 11 15 24
12 29 -3 5 1 15 10 22 13 12 14 10 10 -13 -3 -15 0 -27 5 -27 5 0 9 5 9 11 0
5 5 7 11 3 6 -3 3 5 -6 19 -9 15 -15 32 -13 39 3 8 10 2 19 -14 l14 -28 29 25
28 24 -36 -3 c-21 -1 -39 1 -41 4 -2 4 -17 6 -32 5 -15 -1 -35 3 -43 9 -13 9
-13 9 -2 -6 12 -15 11 -17 -5 -16 -10 0 -24 -1 -32 -3 -7 -2 -16 2 -19 10 -2
8 0 11 5 8 5 -3 15 -2 22 2 9 6 10 11 2 15 -6 4 -11 2 -11 -4 0 -7 -6 -5 -15
4 -9 8 -23 12 -32 9 -10 -4 -14 -2 -10 4 4 6 -1 17 -11 24 -15 12 -16 12 -5
-2 13 -16 8 -29 -9 -29 -5 0 -6 4 -3 10 3 5 -19 34 -49 64 -30 30 -59 63 -66
73 -10 17 -11 17 -6 -2 7 -24 -8 -53 -18 -36 -4 6 -2 11 4 11 8 0 9 7 5 18 -4
9 -8 23 -9 30 -1 7 -10 21 -18 32 -9 10 -13 22 -10 26 4 4 1 4 -7 -1 -9 -5
-12 -3 -9 6 3 8 -4 26 -14 42 -11 15 -16 27 -12 27 3 0 2 6 -4 13 -11 13 -37
97 -34 110 1 4 -2 7 -6 7 -4 0 -9 10 -9 23 -3 46 -8 67 -16 67 -11 0 -5 -43 8
-52 6 -5 4 -8 -5 -8 -13 0 -13 -1 0 -10 12 -8 12 -10 1 -10 -11 0 -11 -3 -1
-15 6 -8 9 -19 5 -25 -4 -6 -1 -9 6 -8 8 2 14 -7 14 -22 0 -14 4 -30 8 -36 4
-7 -1 -18 -11 -25 -16 -13 -16 -13 -2 6 14 19 14 19 -4 5 -11 -8 -17 -10 -13
-4 3 6 0 11 -8 11 -8 0 -11 -5 -8 -10 3 -6 1 -7 -5 -3 -5 3 -13 0 -16 -6 -3
-7 -3 -2 0 12 5 20 4 23 -7 13 -7 -7 -18 -13 -23 -13 -6 0 -4 5 4 10 10 6 11
10 3 10 -7 0 -13 5 -13 11 0 8 4 8 14 0 11 -9 16 -9 22 0 4 8 3 9 -4 5 -8 -5
-10 -1 -6 11 3 10 2 14 -3 8 -4 -5 -15 -11 -23 -13 -8 -2 -12 0 -8 4 4 4 2 14
-5 22 -9 13 -9 14 1 8 12 -7 15 0 15 36 0 10 4 15 8 12 5 -3 9 0 9 6 0 7 -8 9
-19 5 -30 -9 -37 15 -10 36 13 9 27 16 30 13 4 -2 10 2 13 8 3 7 3 2 0 -11 -4
-16 -3 -21 5 -17 6 4 11 13 11 20 0 15 -55 58 -64 49z m138 -270 c-3 -15 -2
-24 2 -20 10 10 35 -13 28 -25 -3 -5 6 -23 22 -39 15 -16 24 -29 21 -29 -4 0
-3 -9 3 -19 7 -14 7 -22 0 -26 -16 -10 8 -35 26 -28 7 3 11 9 8 14 -3 5 1 6 8
4 17 -7 41 -45 34 -53 -3 -3 -6 1 -6 9 0 12 -2 12 -9 0 -5 -8 -16 -11 -26 -8
-9 4 -13 12 -9 18 4 8 3 9 -5 5 -18 -12 -69 -18 -51 -7 8 5 18 7 22 5 4 -3 8
0 8 6 0 7 -8 9 -22 5 -18 -6 -20 -5 -11 5 6 7 9 20 6 29 -4 12 -3 13 5 2 7 -9
12 -10 16 -2 6 10 -6 15 -26 12 -5 0 -8 4 -8 10 0 6 7 8 16 5 9 -3 12 -2 9 5
-4 6 -14 8 -22 5 -8 -3 -12 -2 -9 3 8 12 -39 72 -49 63 -5 -4 -5 -1 0 7 6 10
4 12 -6 6 -11 -6 -12 -5 -1 6 6 7 12 17 12 22 0 5 -8 1 -17 -10 -10 -10 -14
-12 -8 -3 6 10 2 8 -13 -4 -12 -11 -22 -24 -22 -30 0 -6 4 -5 9 3 6 9 8 4 8
-17 -1 -23 -5 -28 -14 -20 -9 7 -13 7 -13 -1 0 -10 14 -15 33 -12 4 1 5 -10 3
-23 -3 -19 -1 -23 11 -19 9 4 11 8 4 12 -6 4 -3 11 8 18 10 6 22 8 27 5 12 -9
14 -42 3 -42 -5 0 -9 7 -9 15 0 22 -15 19 -17 -3 -2 -20 24 -26 44 -10 8 7 11
4 10 -10 -1 -20 -37 -28 -37 -9 0 4 -5 5 -11 1 -8 -5 -7 -10 4 -16 10 -5 14
-15 10 -25 -5 -12 -2 -15 10 -10 20 7 47 -1 47 -15 0 -5 -4 -7 -8 -4 -4 2 -14
0 -22 -6 -12 -8 -12 -9 3 -4 12 4 16 2 11 -6 -4 -7 -3 -8 4 -4 8 5 10 1 6 -11
-5 -15 -4 -15 4 -3 6 8 8 18 6 22 -3 4 -3 8 0 8 2 0 13 3 23 6 15 6 16 4 6 -6
-10 -11 -10 -17 0 -29 10 -12 9 -14 -5 -8 -10 3 -20 2 -23 -3 -3 -5 9 -7 27
-5 20 3 28 1 20 -4 -10 -6 -5 -12 17 -21 17 -7 28 -17 24 -23 -3 -6 -1 -7 6
-3 6 4 8 12 5 18 -5 8 -1 9 10 5 10 -4 26 -3 36 3 13 7 19 6 24 -5 3 -8 1 -17
-4 -20 -6 -4 -10 -1 -10 4 0 6 -5 11 -11 11 -8 0 -8 -4 0 -14 6 -7 8 -22 4
-31 -5 -15 -3 -17 11 -12 11 4 19 1 23 -9 5 -14 7 -14 16 1 10 18 -8 39 -25
29 -10 -6 -11 10 -1 19 3 4 12 2 20 -5 10 -8 17 -8 24 -1 8 8 6 11 -7 10 -14
-2 -18 4 -16 18 2 16 1 17 -7 5 -10 -14 -11 -13 -11 17 0 6 25 8 45 4 3 0 1
-10 -5 -21 -8 -15 -8 -20 2 -18 19 4 15 -35 -6 -59 -15 -17 -22 -20 -33 -12
-7 6 -13 8 -13 4 0 -5 -9 0 -19 9 -11 10 -17 24 -15 31 8 20 -12 27 -29 10
-13 -13 -16 -13 -21 1 -3 8 -11 12 -16 9 -13 -8 -42 14 -34 26 3 5 0 10 -5 10
-6 1 -15 2 -20 3 -11 1 -66 56 -57 56 4 0 -6 12 -23 26 -17 14 -29 29 -26 34
3 4 -2 13 -10 20 -8 7 -15 19 -15 27 0 8 -5 11 -12 7 -7 -4 -10 -4 -6 1 4 4
-1 20 -11 34 -10 14 -16 32 -14 39 3 6 -1 12 -8 12 -6 0 0 9 15 21 14 11 23
25 20 31 -4 7 -2 8 4 4 7 -4 12 -2 12 5 0 10 3 10 12 1 8 -8 8 -15 -3 -28 -13
-16 -12 -16 8 -3 12 7 20 15 18 18 -8 7 17 31 25 26 5 -3 6 -18 4 -32z m17
-95 c9 -17 8 -18 -10 -9 -14 8 -22 8 -26 1 -10 -16 -34 7 -30 28 2 9 4 20 4
25 1 12 51 -24 62 -45z m19 -103 c0 -2 -6 -5 -13 -8 -8 -3 -14 1 -14 8 0 7 6
11 14 8 7 -3 13 -6 13 -8z m64 -24 c3 -4 -4 -7 -14 -6 -27 2 -33 10 -10 12 11
1 22 -2 24 -6z m80 -15 c-3 -8 -17 -12 -33 -11 -29 2 -39 -20 -14 -29 8 -3 11
-10 8 -16 -3 -5 -1 -10 4 -10 14 0 14 17 1 25 -5 3 -10 11 -10 17 0 7 4 7 13
-1 8 -6 18 -7 22 -3 5 4 5 -1 2 -10 -3 -10 -1 -20 5 -24 6 -4 8 -3 5 2 -3 6 3
11 14 11 10 1 19 -2 19 -8 0 -5 -6 -9 -12 -10 -7 0 -24 -2 -38 -4 -14 -1 -32
1 -40 6 -13 7 -13 8 0 9 8 0 2 8 -14 17 -28 15 -29 16 -11 29 10 7 22 11 26 8
5 -3 9 0 9 6 0 6 4 9 9 5 5 -3 12 -1 16 5 9 14 25 2 19 -14z m24 -37 c-7 -4
-16 -3 -20 4 -11 18 2 29 18 16 12 -10 12 -14 2 -20z m166 -51 c-5 -9 -2 -9 9
1 22 17 24 -4 2 -26 -8 -8 -13 -19 -9 -24 9 -16 -15 -37 -36 -32 -22 6 -26 18
-10 28 6 3 8 17 6 30 -3 17 -1 22 9 19 7 -3 16 -1 20 5 3 6 8 11 11 11 3 0 2
-6 -2 -12z m91 -8 c-3 -5 -10 -10 -16 -10 -5 0 -9 5 -9 10 0 6 7 10 16 10 8 0
12 -4 9 -10z"/>
<path d="M975 1271 c-3 -5 -2 -12 3 -15 5 -3 9 1 9 9 0 17 -3 19 -12 6z"/>
<path d="M914 1238 c-24 -29 -25 -60 -1 -64 15 -2 16 0 6 12 -9 11 -9 17 1 29
7 8 9 15 5 15 -4 0 -2 7 5 15 20 24 5 17 -16 -7z"/>
<path d="M1007 1189 c16 -21 35 -41 43 -44 8 -4 2 7 -13 23 -15 16 -27 35 -25
42 2 7 -5 14 -15 15 -14 3 -12 -4 10 -36z"/>
<path d="M1113 1055 c0 -8 4 -12 9 -9 5 3 6 10 3 15 -9 13 -12 11 -12 -6z"/>
<path d="M975 1170 c-4 -6 -11 -7 -17 -4 -7 4 -8 2 -4 -5 6 -8 12 -9 20 -2 7
6 17 7 21 3 5 -4 5 -1 1 6 -9 15 -13 15 -21 2z"/>
<path d="M1340 899 c0 -5 5 -7 10 -4 6 3 10 8 10 11 0 2 -4 4 -10 4 -5 0 -10
-5 -10 -11z"/>
<path d="M1340 870 c-9 -6 -10 -10 -3 -10 6 0 15 5 18 10 8 12 4 12 -15 0z"/>
<path d="M5084 1503 c0 -13 5 -19 13 -16 7 3 13 1 13 -5 0 -6 -5 -12 -11 -14
-7 -2 -13 -18 -14 -35 -1 -24 2 -30 13 -25 11 4 13 1 7 -7 -5 -9 3 -22 21 -38
16 -14 21 -22 12 -19 -12 3 -15 1 -12 -9 4 -10 -2 -12 -23 -9 -25 4 -31 0 -46
-31 -10 -20 -13 -34 -7 -30 5 3 10 2 10 -4 0 -5 6 -16 14 -24 12 -11 11 -15
-6 -26 -15 -9 -19 -9 -17 1 4 35 -1 41 -21 23 -20 -18 -18 -41 2 -29 7 5 8 2
4 -5 -5 -7 -14 -10 -22 -7 -8 3 -13 0 -11 -7 1 -7 -5 -11 -13 -9 -11 3 -10 -2
4 -17 11 -12 14 -21 8 -21 -6 0 -13 4 -16 9 -4 5 -19 -3 -36 -17 -24 -21 -27
-29 -17 -41 10 -12 9 -13 -8 -4 -19 11 -21 10 -91 -47 -7 -5 -16 -6 -20 -2 -5
4 -2 -1 5 -10 12 -16 11 -17 -18 -12 -24 5 -31 3 -31 -9 0 -11 -7 -14 -25 -11
-14 2 -25 0 -25 -6 0 -5 -3 -9 -7 -9 -22 4 -33 -3 -34 -18 0 -16 -2 -15 -10 2
-8 18 -9 17 -5 -4 3 -13 1 -32 -5 -42 -6 -11 -5 -20 1 -24 9 -6 14 8 11 28 0
4 3 7 9 7 6 0 9 3 9 8 -3 19 2 29 16 29 8 0 12 -4 9 -9 -3 -4 0 -8 6 -8 7 0 9
7 5 18 -4 12 -3 14 5 6 6 -6 13 -20 14 -30 2 -12 11 -18 22 -17 18 1 18 1 -1
-14 -17 -13 -17 -15 -2 -9 12 4 16 2 11 -6 -5 -7 -3 -8 6 -3 9 6 11 4 5 -5 -5
-8 -4 -11 2 -7 5 3 10 0 10 -7 0 -8 -10 -12 -24 -10 -12 1 -25 -2 -29 -7 -3
-5 0 -9 7 -9 7 0 9 -3 6 -6 -4 -4 -14 -1 -22 6 -9 7 -15 9 -13 4 2 -5 -1 -10
-7 -12 -5 -2 -17 -10 -25 -17 -14 -12 -16 -12 -17 5 -1 11 2 20 8 20 17 0 9
16 -9 17 -14 1 -18 -6 -19 -32 0 -28 3 -33 18 -30 11 2 24 7 29 10 6 4 23 9
38 11 15 3 29 9 30 15 2 5 7 7 12 4 5 -3 14 0 22 7 7 7 20 14 28 16 8 2 18 9
22 15 4 7 8 8 8 4 0 -5 13 0 29 9 17 10 27 22 24 28 -4 5 0 7 10 3 10 -4 33 9
63 36 82 71 97 87 88 87 -5 0 -1 5 9 11 13 7 16 17 11 32 -6 20 -5 21 12 7 10
-8 16 -11 12 -6 -3 4 3 17 14 28 16 16 17 22 7 35 -11 12 -10 14 6 11 11 -1
20 2 20 7 0 6 4 15 8 21 4 7 0 17 -8 24 -8 7 -15 17 -15 23 0 5 9 2 20 -8 19
-17 19 -17 15 5 -6 30 -35 62 -52 56 -15 -6 -18 10 -3 19 6 4 24 -8 41 -25 17
-17 29 -24 26 -16 -3 8 -3 17 1 19 4 2 1 2 -7 0 -9 -2 -11 2 -7 13 3 8 6 18 6
20 0 3 4 3 9 -1 5 -3 12 -1 16 4 3 6 -5 8 -19 5 -18 -3 -31 4 -49 25 -14 17
-28 27 -31 24 -3 -4 -6 -1 -6 5 0 24 20 21 40 -8 22 -31 40 -39 40 -18 0 6 -3
9 -6 5 -6 -6 -41 31 -63 68 -11 18 -11 18 -5 -5 6 -24 5 -24 -12 -8 -15 15
-15 19 -4 33 13 16 15 15 27 -2 44 -59 58 -73 72 -72 12 0 11 3 -4 9 -11 5
-17 9 -13 9 3 1 -6 14 -20 29 -15 16 -38 43 -52 62 -22 28 -26 30 -26 13z m93
-190 c-8 -7 -37 9 -31 19 3 5 12 4 20 -3 8 -6 13 -14 11 -16z m-78 -32 c-13
-23 -15 -30 -5 -22 12 11 15 9 13 -8 -2 -28 -13 -26 -32 3 -20 30 -6 66 25 63
19 -1 19 -2 -1 -36z m70 -21 c15 -23 15 -24 -1 -12 -23 19 -35 -4 -13 -28 11
-12 13 -20 5 -25 -5 -3 -7 -11 -4 -17 4 -7 2 -8 -4 -4 -18 11 -35 -3 -23 -18
21 -25 -29 -55 -56 -33 -23 17 -14 30 10 14 19 -12 24 -12 35 -1 7 8 8 14 2
14 -15 0 -12 30 3 31 8 0 8 2 -2 6 -10 4 -8 9 10 20 17 10 18 12 4 7 -11 -3
-26 -7 -32 -7 -9 0 -10 -4 -2 -14 8 -9 8 -13 1 -13 -6 0 -14 5 -17 10 -4 7
-16 1 -31 -15 -14 -15 -29 -25 -35 -23 -11 4 -13 19 -3 17 4 0 10 5 15 13 5 7
12 13 16 13 17 1 87 44 73 45 -9 0 -6 6 9 14 15 8 20 16 12 20 -6 4 -11 2 -11
-4 0 -6 -4 -8 -10 -5 -17 11 -11 22 11 21 12 0 29 -12 38 -26z m-119 -34 c0
-2 -7 -7 -16 -10 -8 -3 -12 -2 -9 4 6 10 25 14 25 6z m56 -83 c-2 -3 -13 0
-25 6 -30 17 -36 -4 -10 -40 24 -34 14 -51 -22 -42 -23 6 -24 11 -1 36 10 12
11 17 3 12 -10 -6 -12 -4 -6 5 6 9 4 11 -5 5 -9 -6 -11 -4 -5 4 5 8 -3 7 -23
-3 -16 -8 -32 -13 -35 -10 -3 3 -8 0 -13 -7 -4 -8 -3 -10 4 -5 7 4 12 3 12 -3
0 -17 -16 -21 -35 -7 -18 13 -18 14 4 26 13 6 34 13 47 15 29 3 74 32 74 48 1
6 10 1 21 -12 11 -13 18 -26 15 -28z m-78 -38 c-2 -6 -8 -10 -15 -10 -6 0 -15
-4 -20 -9 -4 -5 -3 -6 4 -2 6 3 18 -2 25 -12 13 -19 18 -22 38 -22 6 0 -19
-27 -56 -60 -48 -44 -70 -58 -79 -50 -8 7 -15 3 -23 -15 -6 -14 -16 -25 -22
-25 -20 0 -25 -2 -39 -13 -13 -11 -48 -20 -37 -10 3 4 0 13 -8 22 -8 9 -16 20
-18 26 -2 5 -10 8 -18 6 -10 -2 -8 3 6 16 11 10 14 14 7 9 -8 -5 -15 -7 -16
-5 -1 2 -9 12 -16 21 -11 15 -10 17 8 13 12 -2 25 3 30 13 8 14 13 15 30 4 13
-7 21 -8 22 -2 3 20 4 25 12 38 5 6 17 12 28 12 11 0 18 4 15 9 -3 5 1 14 9
21 8 7 15 8 15 3 0 -19 59 -8 80 15 21 22 45 27 38 7z"/>
<path d="M5076 1295 c-9 -26 -7 -32 5 -12 6 10 9 21 6 23 -2 3 -7 -2 -11 -11z"/>
<path d="M5056 1091 c-4 -5 -2 -12 3 -15 5 -4 12 -2 15 3 4 5 2 12 -3 15 -5 4
-12 2 -15 -3z"/>
<path d="M4974 1069 c-3 -5 -2 -13 1 -19 3 -6 -1 -7 -9 -4 -9 3 -13 11 -9 18
3 6 -5 1 -19 -11 -29 -27 -48 -31 -25 -5 15 17 15 18 -6 19 -17 2 -19 0 -7 -7
12 -8 12 -10 1 -10 -8 0 -11 -6 -7 -16 5 -13 3 -14 -6 -7 -13 10 -39 12 -36 3
1 -3 -4 -15 -11 -28 -10 -19 -15 -21 -27 -11 -11 9 -18 8 -32 -5 -10 -9 -22
-13 -27 -9 -4 5 -5 2 0 -5 5 -9 11 -10 17 -4 6 6 17 8 25 5 11 -4 10 -8 -4
-18 -17 -13 -17 -14 0 -20 9 -4 17 -11 17 -17 0 -5 -6 -6 -12 -2 -7 4 -4 -2 6
-14 15 -18 22 -20 34 -10 7 7 21 13 30 14 20 3 34 26 22 38 -16 16 -11 30 5
16 8 -7 15 -9 15 -5 0 4 6 2 14 -4 11 -10 25 -1 69 42 31 29 49 54 41 54 -8 0
-14 -5 -14 -10 0 -6 -3 -7 -7 -4 -3 4 -14 0 -23 -8 -16 -14 -18 -14 -24 0 -3
9 -2 13 3 10 6 -3 14 2 19 11 5 9 12 15 15 15 4 -1 8 2 10 6 3 10 -32 12 -39
2z m-24 -45 c-4 -17 26 -22 44 -6 19 17 19 16 2 -10 -20 -31 -61 -60 -71 -50
-4 4 -12 7 -17 7 -6 0 -13 6 -16 13 -4 14 19 12 30 -3 12 -15 10 7 -2 25 -6
10 -10 11 -10 3 0 -7 -3 -12 -7 -12 -29 5 -41 -22 -22 -47 6 -7 3 -16 -6 -24
-8 -7 -15 -9 -15 -5 0 5 -9 0 -20 -10 -11 -10 -21 -14 -21 -9 -1 5 -2 15 -3
22 0 7 -7 16 -14 21 -11 6 -10 10 5 15 17 7 17 8 -1 22 -11 8 -15 14 -10 14 6
0 15 -5 21 -11 8 -8 15 -4 26 12 9 12 14 26 12 30 -6 9 16 6 34 -5 8 -6 20 -1
34 13 19 19 32 16 27 -5z"/>
<path d="M4927 1024 c-3 -4 -2 -15 4 -26 5 -10 7 -24 4 -31 -4 -6 0 -4 8 5 8
10 17 15 20 11 4 -3 7 -1 7 5 0 6 -9 14 -20 17 -11 4 -18 11 -15 16 7 10 2 12
-8 3z"/>
<path d="M4842 980 c-20 -24 -28 -41 -21 -45 6 -4 8 -14 4 -23 -4 -12 -1 -11
16 4 11 10 23 18 25 17 12 -8 15 -1 6 10 -6 7 -9 22 -7 32 2 11 4 24 4 28 1 5
6 5 13 1 7 -4 8 -3 4 4 -9 15 -6 17 -44 -28z m10 -12 c-9 -9 -7 -14 5 -23 15
-11 14 -12 -8 -10 -13 1 -26 3 -28 4 -5 1 31 41 38 41 3 0 0 -5 -7 -12z"/>
<path d="M5160 1500 c-13 -8 -12 -10 3 -10 9 0 17 5 17 10 0 12 -1 12 -20 0z"/>
<path d="M5130 1491 c0 -10 19 -25 25 -20 1 2 -3 10 -11 17 -8 7 -14 8 -14 3z"/>
<path d="M5195 1480 c6 -10 4 -12 -9 -7 -10 4 -15 3 -11 -3 8 -13 35 -13 35
-1 0 6 -5 13 -12 17 -7 5 -8 3 -3 -6z"/>
<path d="M866 1454 c-11 -7 -17 -17 -13 -20 4 -4 13 -2 21 5 11 9 15 8 20 -5
3 -9 2 -22 -4 -29 -5 -6 -7 -15 -3 -18 3 -4 0 -13 -7 -22 -7 -8 -9 -15 -5 -15
4 0 13 8 20 17 11 15 13 14 24 -8 11 -23 11 -23 -3 -5 -9 11 -16 15 -16 8 0
-6 10 -21 23 -32 20 -19 20 -21 2 -14 -11 4 -17 4 -14 0 4 -4 15 -8 25 -10 15
-3 19 2 19 24 1 20 -3 26 -13 22 -10 -3 -13 2 -10 19 2 19 -1 24 -19 23 -13
-1 -20 3 -17 7 3 5 9 7 14 4 5 -3 11 -1 15 5 3 5 2 10 -4 10 -6 0 -16 11 -23
24 -12 22 -15 23 -32 10z"/>
<path d="M917 1453 c-10 -9 -9 -23 1 -23 5 0 9 7 9 15 0 17 -1 18 -10 8z"/>
<path d="M5175 1432 c34 -32 44 -33 23 -3 -8 12 -18 18 -21 14 -4 -3 -7 -1 -7
5 0 7 -6 12 -12 12 -7 0 1 -13 17 -28z"/>
<path d="M5076 1382 c-3 -6 1 -13 10 -16 8 -3 12 -10 9 -16 -3 -5 -1 -10 4
-10 15 0 13 11 -3 33 -8 10 -17 14 -20 9z"/>
<path d="M5200 1359 c0 -5 5 -7 10 -4 6 3 10 8 10 11 0 2 -4 4 -10 4 -5 0 -10
-5 -10 -11z"/>
<path d="M1666 958 c3 -5 10 -6 15 -3 13 9 11 12 -6 12 -8 0 -12 -4 -9 -9z"/>
<path d="M1605 950 c-4 -6 -11 -8 -16 -5 -5 4 -9 1 -9 -4 0 -15 11 -13 34 4
11 8 15 15 9 15 -7 0 -15 -5 -18 -10z"/>
<path d="M1646 945 c4 -8 11 -15 16 -15 6 0 5 6 -2 15 -7 8 -14 15 -16 15 -2
0 -1 -7 2 -15z"/>
<path d="M4586 937 c-4 -15 -2 -16 10 -6 13 11 18 6 15 -15 -1 -5 4 -6 12 -3
7 3 14 -1 14 -9 0 -7 -5 -10 -10 -7 -6 4 -7 0 -3 -8 4 -8 1 -6 -7 4 -8 10 -18
14 -21 9 -7 -12 20 -36 32 -28 5 3 9 -1 9 -8 0 -8 -7 -12 -15 -8 -10 3 -13 1
-8 -6 4 -7 2 -10 -7 -6 -7 2 -14 -1 -14 -9 0 -9 12 -14 31 -14 17 0 25 2 18 5
-10 3 -10 7 -1 18 6 8 8 14 4 14 -4 0 -2 6 4 14 8 10 9 16 1 21 -6 4 -7 12 -1
24 13 23 2 36 -31 37 -18 0 -28 -6 -32 -19z m59 -5 c-3 -3 -11 0 -18 7 -9 10
-8 11 6 5 10 -3 15 -9 12 -12z"/>
<path d="M1477 909 c-21 -22 -34 -39 -30 -39 9 0 83 67 83 75 0 12 -17 0 -53
-36z"/>
<path d="M1500 889 c-30 -32 -61 -58 -67 -59 -21 0 -15 -16 6 -16 11 0 18 4
15 7 -2 4 0 10 6 14 9 6 14 -7 11 -27 -2 -13 8 -9 28 14 18 19 21 19 27 5 3
-10 11 -17 16 -17 7 0 6 5 -1 14 -9 11 -6 14 14 14 13 0 22 -4 19 -9 -3 -5 0
-9 5 -9 6 0 11 5 11 11 0 5 4 8 8 5 4 -2 9 5 9 17 2 18 0 19 -7 6 -6 -11 -22
-15 -54 -13 -33 2 -46 -2 -51 -14 -5 -14 -7 -14 -15 -2 -11 17 -13 37 -4 27 3
-3 22 12 42 33 19 22 38 37 42 35 4 -2 7 2 7 10 0 23 -8 18 -67 -46z"/>
<path d="M4522 943 c-6 -2 -9 -10 -5 -16 4 -7 -1 -6 -10 2 -11 8 -17 9 -17 2
0 -6 -11 -8 -30 -4 -19 3 -30 1 -30 -6 0 -7 13 -10 35 -8 22 3 32 0 28 -6 -4
-7 1 -8 13 -3 32 13 48 14 62 3 9 -7 17 -6 28 6 8 9 9 12 2 7 -20 -16 -30 -11
-23 11 6 18 5 19 -13 10 -26 -14 -35 -14 -27 -1 7 11 6 11 -13 3z"/>
<path d="M4692 934 c-1 -8 -3 -21 -4 -29 -1 -8 -5 -15 -10 -15 -4 0 -8 -5 -8
-11 0 -5 4 -8 9 -4 16 10 23 -15 9 -33 -11 -15 -11 -15 3 -5 9 7 19 10 23 6 4
-4 4 1 0 12 -6 14 -4 17 9 12 9 -3 19 -2 22 4 4 5 11 7 16 4 5 -4 9 -2 9 3 0
6 -7 13 -16 16 -8 3 -13 10 -9 15 3 5 1 12 -5 16 -6 4 -8 9 -6 13 2 4 -6 8
-18 8 -13 1 -23 -5 -24 -12z m42 -12 c7 -12 -23 -54 -34 -47 -9 6 -8 24 3 43
9 14 23 16 31 4z"/>
<path d="M4709 918 c-6 -21 -5 -37 2 -32 5 3 7 9 4 14 -3 4 1 11 7 13 10 4 10
6 1 6 -7 1 -13 0 -14 -1z"/>
<path d="M1630 929 c0 -5 -4 -7 -10 -4 -6 4 -7 -1 -3 -12 6 -16 5 -17 -13 -3
-18 14 -18 14 -5 -3 14 -18 16 -18 28 -1 13 18 17 34 8 34 -3 0 -5 -5 -5 -11z"/>
<path d="M1670 920 c-13 -8 -12 -10 3 -10 9 0 17 5 17 10 0 12 -1 12 -20 0z"/>
<path d="M4180 914 c0 -8 5 -12 10 -9 6 4 8 11 5 16 -9 14 -15 11 -15 -7z"/>
<path d="M4316 920 c-16 -3 -32 -12 -34 -20 -4 -12 -3 -13 10 -2 13 10 17 10
22 -3 3 -8 2 -22 -1 -32 -4 -10 -2 -14 5 -9 23 14 24 -17 1 -35 -20 -16 -21
-19 -6 -19 10 0 20 7 23 15 5 13 9 13 22 3 14 -11 15 -10 8 7 -4 11 -4 16 1
12 4 -5 8 -22 9 -39 1 -20 -1 -26 -7 -17 -4 7 -11 10 -15 6 -4 -3 -2 -13 5
-20 11 -15 20 -15 106 -2 28 4 59 8 70 10 20 2 68 13 94 21 20 7 8 15 -30 19
-21 3 -29 1 -20 -4 9 -6 10 -11 2 -15 -6 -4 -11 -2 -11 3 0 6 -4 11 -10 11 -5
0 -7 -8 -4 -17 5 -16 4 -16 -6 0 -11 18 -13 18 -31 1 -22 -20 -38 -12 -19 11
7 8 8 15 2 15 -14 0 -35 -27 -29 -37 7 -11 -42 -10 -65 1 -10 5 -18 12 -18 18
0 5 4 7 9 4 5 -3 15 2 22 11 12 14 11 15 -9 9 -21 -7 -28 1 -23 28 1 5 -5 6
-14 3 -24 -10 -48 3 -35 18 8 9 6 14 -6 19 -9 4 -14 9 -11 13 11 10 36 -17 30
-33 -3 -8 0 -14 6 -14 6 0 11 5 11 10 0 21 2 25 16 33 15 9 43 -2 43 -18 0 -5
4 -11 9 -13 15 -5 9 22 -8 38 -18 17 -50 23 -50 9 0 -11 -27 -12 -32 -1 -1 4
-16 5 -32 2z"/>
<path d="M1563 901 c10 -4 18 -10 18 -14 -3 -25 0 -31 9 -17 11 18 -5 40 -29
39 -13 0 -13 -2 2 -8z"/>
<path d="M1633 891 c-9 -14 -9 -21 0 -30 8 -8 8 -11 -1 -11 -7 0 -12 -4 -12
-8 0 -5 7 -9 15 -9 8 0 12 4 10 8 -3 4 2 10 11 13 8 3 12 11 8 17 -4 8 1 9 17
5 20 -6 21 -5 6 4 -19 12 -41 4 -32 -11 4 -5 2 -9 -3 -9 -17 0 -22 13 -10 27
6 7 9 15 7 18 -3 2 -10 -4 -16 -14z"/>
<path d="M4459 900 c-1 -5 -2 -14 -3 -19 -2 -19 -16 -23 -31 -11 -14 12 -15
11 -4 -13 7 -15 16 -27 21 -27 5 0 6 5 3 10 -3 6 -1 11 4 11 6 1 16 2 23 3 6
0 13 7 16 15 3 8 0 11 -6 7 -6 -3 -13 -2 -16 3 -7 10 13 9 31 -2 6 -4 13 -4
16 0 2 5 2 2 1 -4 -4 -18 7 -16 36 4 20 13 22 14 13 2 -7 -9 -10 -19 -6 -22 3
-4 12 1 20 11 13 15 13 15 3 -6 -6 -12 -15 -20 -19 -17 -5 3 -12 -2 -15 -11
-9 -24 -8 -24 19 -12 13 6 24 14 23 17 -2 21 4 31 15 26 6 -4 -1 5 -17 19 -27
23 -31 23 -43 8 -12 -15 -13 -15 -7 3 3 11 2 16 -3 10 -12 -15 -31 -17 -53 -5
-14 7 -20 7 -21 0z"/>
<path d="M4387 886 c-3 -8 -3 -17 1 -21 4 -4 7 -11 7 -16 0 -5 5 -9 10 -8 6 1
8 6 6 13 -2 6 -3 19 -3 29 1 20 -14 23 -21 3z"/>
<path d="M1528 876 c-15 -11 -14 -13 15 -13 18 0 26 2 19 5 -6 2 -10 8 -6 13
8 13 -8 11 -28 -5z"/>
<path d="M4480 846 c-5 -5 -10 -7 -10 -4 0 3 -13 -6 -30 -20 -25 -22 -27 -28
-14 -35 11 -7 24 -1 44 18 27 26 60 27 43 1 -4 -7 0 -3 9 7 10 11 16 23 13 27
-3 5 1 10 7 12 7 3 -1 5 -19 5 -18 0 -37 -5 -43 -11z m15 -6 c-3 -5 -20 -19
-38 -30 -32 -22 -32 -22 3 9 37 32 45 37 35 21z"/>
</g>
</svg>
